<svg xmlns="http://www.w3.org/2000/svg" xmlns:xlink="http://www.w3.org/1999/xlink" width="500" zoomAndPan="magnify" viewBox="0 0 375 374.999991" height="500" preserveAspectRatio="xMidYMid meet" version="1.0"><path fill="#252525" d="M 0.160156 259.054688 C 0.0625 250.199219 2.890625 241.8125 4.964844 233.335938 C 10.238281 211.949219 15.421875 190.5625 20.886719 169.269531 C 25.5 151.558594 36.523438 139.40625 54.046875 134.035156 C 81.464844 125.648438 109.066406 118.113281 136.671875 110.292969 C 140.347656 109.257812 144.304688 109.066406 148.167969 108.785156 C 150.050781 108.597656 150.804688 108.410156 150.523438 106.242188 C 148.355469 90.320312 153.628906 77.128906 165.59375 66.296875 C 182.367188 51.222656 198.757812 35.863281 215.433594 20.601562 C 227.585938 9.578125 241.625 6.09375 257.453125 10.523438 C 279.96875 16.832031 302.488281 23.335938 324.910156 29.929688 C 340.832031 34.640625 351.382812 45.097656 355.433594 61.207031 C 361.085938 83.726562 366.363281 106.335938 371.355469 129.042969 C 374.9375 145.339844 369.941406 159.566406 357.695312 170.871094 C 340.738281 186.511719 323.589844 201.867188 306.539062 217.316406 C 293.914062 228.71875 279.308594 232.109375 262.917969 227.398438 C 259.242188 226.363281 259.054688 226.550781 258.113281 230.414062 C 252.175781 255.285156 246.523438 280.253906 240.210938 305.03125 C 235.5 323.589844 223.628906 336.121094 205.257812 341.585938 C 178.3125 349.59375 151.273438 357.035156 124.140625 364.195312 C 106.523438 368.90625 90.320312 364.949219 76.753906 352.609375 C 56.121094 333.765625 35.675781 314.546875 15.421875 295.328125 C 5.152344 285.527344 0.253906 273.1875 0.160156 259.054688 Z M 254.71875 214.867188 C 254.4375 214.773438 254.15625 214.773438 253.871094 214.679688 C 253.871094 213.644531 253.96875 212.511719 253.871094 211.382812 C 253.402344 202.714844 250.105469 200.265625 241.625 202.714844 C 229.847656 206.011719 218.167969 209.308594 206.390625 212.511719 C 186.132812 218.167969 165.878906 223.914062 145.714844 229.566406 C 136.859375 232.015625 131.585938 237.292969 129.417969 246.523438 C 121.882812 279.6875 114.0625 312.851562 106.335938 345.917969 C 104.453125 354.019531 107.84375 358.261719 116.324219 357.695312 C 121.222656 357.316406 126.214844 356.46875 130.925781 355.152344 C 154.195312 348.652344 177.464844 341.867188 200.738281 335.367188 C 218.730469 330.277344 229.847656 318.785156 234.277344 300.695312 C 239.550781 279.121094 244.921875 257.546875 250.199219 235.972656 C 251.894531 228.90625 253.308594 221.839844 254.71875 214.867188 Z M 126.402344 241.4375 C 126.308594 232.957031 123.199219 227.777344 118.582031 223.347656 C 94.183594 200.078125 69.96875 176.902344 45.570312 153.628906 C 40.199219 148.542969 35.488281 149.015625 31.058594 155.042969 C 27.386719 160.132812 25.21875 165.785156 23.804688 171.8125 C 17.964844 196.496094 12.21875 221.273438 6.28125 245.957031 C 2.136719 263.480469 6.660156 278.460938 19.566406 290.710938 C 38.21875 308.421875 57.15625 325.757812 76 343.28125 C 79.015625 346.105469 82.125 348.933594 85.515625 351.289062 C 90.320312 354.585938 96.253906 352.984375 98.800781 347.800781 C 99.929688 345.542969 100.683594 342.996094 101.25 340.453125 C 108.21875 313.320312 115.097656 286.28125 121.976562 259.242188 C 123.859375 252.742188 125.367188 246.148438 126.402344 241.4375 Z M 138.652344 226.644531 C 141.101562 226.175781 143.550781 225.890625 145.90625 225.230469 C 172.945312 217.414062 199.890625 209.40625 227.023438 201.492188 C 232.296875 199.984375 237.480469 198.570312 242.660156 196.875 C 247.089844 195.460938 248.125 192.257812 245.300781 188.582031 C 243.414062 186.132812 241.4375 183.777344 239.175781 181.707031 C 219.578125 163.144531 199.984375 144.585938 180.292969 126.121094 C 167.480469 114.0625 152.40625 110.292969 135.449219 115.003906 C 109.445312 122.164062 83.535156 129.417969 57.535156 136.671875 C 54.613281 137.519531 51.597656 138.554688 48.867188 139.875 C 44.25 142.136719 43.589844 146.28125 46.980469 150.144531 C 47.546875 150.710938 48.113281 151.273438 48.679688 151.839844 C 55.273438 158.058594 61.867188 164.277344 68.460938 170.398438 C 85.890625 186.605469 103.414062 202.714844 120.84375 218.917969 C 125.933594 223.535156 131.492188 226.644531 138.652344 226.644531 Z M 366.175781 136.859375 C 366.078125 135.542969 365.984375 133.1875 365.515625 131.019531 C 361.085938 110.765625 356.375 90.601562 351.949219 70.347656 C 350.441406 63.375 348.933594 56.402344 344.882812 50.28125 C 341.773438 45.664062 338.289062 44.910156 334.234375 48.582031 C 312.851562 67.898438 291.464844 87.398438 270.078125 106.808594 C 263.859375 112.367188 261.878906 118.867188 264.140625 127.15625 C 267.628906 139.875 270.453125 152.78125 273.5625 165.59375 C 277.144531 180.667969 280.722656 195.648438 284.304688 210.722656 C 286.09375 218.261719 290.050781 220.050781 296.644531 216.1875 C 300.132812 214.210938 303.429688 211.757812 306.441406 208.933594 C 322.363281 194.425781 338.289062 180.011719 354.113281 165.3125 C 362.027344 157.964844 365.984375 148.730469 366.175781 136.859375 Z M 244.921875 12.125 C 234.839844 12.878906 226.078125 16.269531 218.261719 23.335938 C 201.113281 38.785156 183.96875 54.238281 166.820312 69.875 C 165.03125 71.476562 163.335938 73.171875 161.921875 74.964844 C 158.625 79.015625 159.660156 82.878906 164.652344 84.289062 C 192.539062 92.488281 220.425781 100.589844 248.3125 108.691406 C 255.945312 110.859375 262.632812 108.972656 268.382812 103.605469 C 285.8125 87.492188 303.144531 71.289062 320.480469 55.179688 C 323.871094 51.976562 327.359375 48.867188 330.75 45.664062 C 334.707031 41.894531 334.234375 39.257812 329.242188 36.902344 C 327.074219 35.863281 324.816406 35.109375 322.554688 34.359375 C 302.203125 28.140625 281.757812 21.921875 261.316406 15.984375 C 255.945312 14.382812 250.386719 13.441406 244.921875 12.125 Z M 260.089844 213.925781 C 260.375 221.273438 260.375 221.273438 267.816406 222.875 C 268.757812 223.066406 269.792969 223.253906 270.738281 223.253906 C 275.824219 223.535156 279.59375 219.957031 279.308594 214.867188 C 279.214844 213.171875 278.933594 211.570312 278.554688 209.875 C 275.730469 196.496094 272.808594 183.117188 269.890625 169.742188 C 266.78125 155.609375 263.671875 141.476562 260.5625 127.34375 C 258.867188 119.808594 254.34375 114.910156 246.996094 112.648438 C 244.828125 111.988281 242.660156 111.328125 240.398438 110.667969 C 215.058594 102.851562 189.808594 95.03125 164.464844 87.304688 C 157.871094 85.328125 154.382812 87.304688 153.628906 94.089844 C 153.160156 98.234375 153.726562 102.566406 153.914062 106.808594 C 154.007812 108.503906 155.042969 109.066406 156.644531 109.351562 C 166.632812 110.859375 175.394531 115.097656 182.835938 121.882812 C 203.1875 140.535156 223.441406 159.1875 243.699219 178.03125 C 254.0625 187.734375 259.527344 199.792969 260.089844 213.925781 Z M 156.550781 316.902344 C 163.144531 314.546875 168.796875 306.726562 168.988281 299.753906 C 169.175781 293.535156 164.558594 289.957031 158.53125 291.746094 C 151.652344 293.726562 145.527344 302.203125 145.527344 309.363281 C 145.621094 315.769531 150.523438 319.066406 156.550781 316.902344 Z M 208.085938 261.878906 C 215.339844 259.996094 221.933594 250.765625 221.371094 243.320312 C 220.992188 238.046875 217.128906 235.125 211.855469 236.253906 C 204.789062 237.761719 198.097656 246.242188 198.003906 253.777344 C 197.910156 259.996094 202.148438 263.386719 208.085938 261.878906 Z M 54.613281 189.902344 C 50.65625 186.417969 45.757812 187.265625 42.929688 191.785156 C 38.878906 198.289062 40.765625 209.875 46.605469 214.867188 C 50.5625 218.261719 55.742188 217.601562 58.191406 212.984375 C 59.605469 210.347656 60.078125 207.238281 61.019531 204.316406 C 60.171875 198.570312 58.851562 193.578125 54.613281 189.902344 Z M 74.398438 312.378906 C 78.261719 316.054688 83.253906 315.582031 86.175781 311.34375 C 90.601562 304.9375 88.71875 292.5 82.5 287.601562 C 78.449219 284.398438 73.550781 285.246094 71.101562 289.769531 C 69.6875 292.3125 69.214844 295.328125 68.746094 296.738281 C 69.121094 303.617188 70.441406 308.609375 74.398438 312.378906 Z M 60.265625 263.292969 C 64.316406 267.0625 69.5 266.308594 72.324219 261.503906 C 76.09375 255.097656 74.398438 243.886719 68.839844 238.894531 C 64.503906 235.125 59.324219 235.878906 56.6875 240.964844 C 55.460938 243.507812 54.988281 246.429688 54.238281 249.160156 C 54.894531 254.625 56.214844 259.527344 60.265625 263.292969 Z M 156.738281 180.199219 C 159.472656 179.445312 162.015625 178.21875 162.769531 175.109375 C 163.523438 172.097656 162.203125 169.648438 160.035156 167.761719 C 154.101562 162.582031 147.222656 160.886719 139.59375 162.390625 C 136.671875 162.957031 134.128906 164.371094 133.375 167.574219 C 132.621094 170.777344 134.222656 173.132812 136.484375 175.109375 C 140.910156 179.066406 146.28125 180.480469 152.59375 180.859375 C 153.628906 180.667969 155.230469 180.574219 156.738281 180.199219 Z M 326.792969 120.65625 C 325.945312 117.828125 324.4375 115.570312 321.421875 114.910156 C 318.21875 114.25 315.863281 115.945312 314.074219 118.394531 C 310.683594 123.292969 309.648438 128.851562 311.8125 134.503906 C 313.886719 140.15625 319.539062 141.101562 323.589844 136.578125 C 326.417969 133.375 327.359375 129.511719 327.546875 124.707031 C 327.359375 123.765625 327.265625 122.164062 326.792969 120.65625 Z M 213.550781 71.761719 C 216.375 68.746094 215.90625 65.164062 212.703125 63.09375 C 206.859375 59.324219 194.519531 62.054688 190.84375 67.898438 C 188.960938 70.816406 189.527344 73.925781 192.730469 75.433594 C 194.894531 76.46875 197.34375 76.941406 198.664062 77.320312 C 204.976562 76.941406 209.875 75.8125 213.550781 71.761719 Z M 263.105469 87.210938 C 266.121094 83.914062 265.273438 80.050781 261.410156 78.070312 C 255.664062 75.246094 245.109375 77.414062 241.058594 82.40625 C 238.140625 85.890625 238.988281 89.753906 243.226562 91.542969 C 245.109375 92.296875 247.183594 92.582031 248.503906 92.769531 C 254.53125 92.390625 259.429688 91.167969 263.105469 87.210938 Z M 303.523438 52.164062 C 306.253906 49.148438 305.691406 45.570312 302.488281 43.496094 C 296.738281 39.917969 284.585938 42.554688 280.816406 48.300781 C 278.839844 51.316406 279.402344 54.519531 282.703125 56.121094 C 284.773438 57.15625 287.128906 57.535156 288.355469 57.816406 C 294.949219 57.441406 299.847656 56.214844 303.523438 52.164062 Z M 251.800781 35.015625 C 254.53125 32.003906 254.0625 28.421875 250.859375 26.347656 C 245.109375 22.675781 232.957031 25.3125 229.1875 30.964844 C 227.117188 34.074219 227.777344 37.371094 231.167969 38.972656 C 233.144531 39.917969 235.5 40.199219 236.632812 40.574219 C 243.132812 40.292969 248.03125 39.066406 251.800781 35.015625 Z M 235.878906 150.238281 C 240.964844 151.933594 244.921875 149.296875 245.015625 143.925781 C 245.109375 137.804688 240.117188 130.738281 234.277344 128.757812 C 229.1875 127.0625 225.328125 129.792969 225.328125 135.257812 C 225.328125 141.382812 230.226562 148.355469 235.878906 150.238281 Z M 235.878906 150.238281 " fill-opacity="1" fill-rule="nonzero"/></svg>