<svg xmlns="http://www.w3.org/2000/svg" xmlns:xlink="http://www.w3.org/1999/xlink" width="500" zoomAndPan="magnify" viewBox="0 0 375 374.999991" height="500" preserveAspectRatio="xMidYMid meet" version="1.0"><defs><clipPath id="1c7502f0d1"><path d="M 22.851562 0.00390625 L 352.101562 0.00390625 L 352.101562 374.195312 L 22.851562 374.195312 Z M 22.851562 0.00390625 " clip-rule="nonzero"/></clipPath></defs><g clip-path="url(#1c7502f0d1)"><path fill="#e1e1e1" d="M 187.492188 13.625 C 186.488281 13.625 185.488281 13.882812 184.597656 14.398438 L 39.371094 98.242188 C 37.585938 99.273438 36.480469 101.191406 36.480469 103.253906 L 36.480469 270.945312 C 36.480469 273.007812 37.585938 274.929688 39.371094 275.957031 L 184.597656 359.800781 C 186.382812 360.832031 188.597656 360.832031 190.382812 359.800781 L 335.609375 275.957031 C 337.394531 274.929688 338.503906 273.007812 338.503906 270.945312 L 338.503906 103.253906 C 338.503906 101.191406 337.394531 99.273438 335.609375 98.242188 L 190.382812 14.398438 C 189.492188 13.882812 188.492188 13.625 187.492188 13.625 Z M 187.492188 374.195312 C 184.132812 374.195312 180.777344 373.332031 177.785156 371.605469 L 32.558594 287.757812 C 26.574219 284.300781 22.851562 277.859375 22.851562 270.945312 L 22.851562 103.253906 C 22.851562 96.34375 26.574219 89.898438 32.558594 86.441406 L 177.785156 2.597656 C 183.769531 -0.859375 191.210938 -0.859375 197.195312 2.597656 L 342.421875 86.441406 C 348.410156 89.898438 352.128906 96.34375 352.128906 103.253906 L 352.128906 270.945312 C 352.128906 277.859375 348.410156 284.300781 342.421875 287.757812 L 197.195312 371.605469 C 194.203125 373.332031 190.847656 374.195312 187.492188 374.195312 " fill-opacity="1" fill-rule="nonzero"/></g></svg>