<svg xmlns="http://www.w3.org/2000/svg" xmlns:xlink="http://www.w3.org/1999/xlink" width="500" zoomAndPan="magnify" viewBox="0 0 375 374.999991" height="500" preserveAspectRatio="xMidYMid meet" version="1.2"><defs><clipPath id="4f2abd5ef1"><path d="M 56 52.636719 L 194 52.636719 L 194 302.386719 L 56 302.386719 Z M 56 52.636719 "/></clipPath><clipPath id="9cee17044b"><path d="M 181 52.636719 L 319 52.636719 L 319 302.386719 L 181 302.386719 Z M 181 52.636719 "/></clipPath></defs><g id="4738d7c6ad"><g clip-rule="nonzero" clip-path="url(#4f2abd5ef1)"><path style=" stroke:none;fill-rule:evenodd;fill:#e1e1e1;fill-opacity:1;" d="M 61.019531 298.734375 C 66.074219 303.601562 74.261719 303.601562 79.304688 298.734375 L 186.234375 195.542969 C 196.332031 185.796875 196.332031 169.988281 186.234375 160.242188 L 78.53125 56.289062 C 73.523438 51.472656 65.4375 51.410156 60.375 56.164062 C 55.191406 61.019531 55.132812 69.015625 60.230469 73.945312 L 158.808594 169.0625 C 163.863281 173.941406 163.863281 181.84375 158.808594 186.722656 L 61.019531 281.089844 C 55.964844 285.957031 55.964844 293.867188 61.019531 298.734375 "/></g><g clip-rule="nonzero" clip-path="url(#9cee17044b)"><path style=" stroke:none;fill-rule:evenodd;fill:#e1e1e1;fill-opacity:1;" d="M 186.011719 298.734375 C 191.066406 303.601562 199.257812 303.601562 204.300781 298.734375 L 311.230469 195.542969 C 321.328125 185.796875 321.328125 169.988281 311.230469 160.242188 L 203.527344 56.289062 C 198.519531 51.472656 190.433594 51.410156 185.367188 56.164062 C 180.183594 61.019531 180.128906 69.015625 185.226562 73.945312 L 283.804688 169.0625 C 288.859375 173.941406 288.859375 181.84375 283.804688 186.722656 L 186.011719 281.089844 C 180.957031 285.957031 180.957031 293.867188 186.011719 298.734375 "/></g></g></svg>