<svg xmlns="http://www.w3.org/2000/svg" xmlns:xlink="http://www.w3.org/1999/xlink" width="500" zoomAndPan="magnify" viewBox="0 0 375 374.999991" height="500" preserveAspectRatio="xMidYMid meet" version="1.0"><defs><clipPath id="6cd5a5a496"><path d="M 55 73 L 320 73 L 320 364.828125 L 55 364.828125 Z M 55 73 " clip-rule="nonzero"/></clipPath><clipPath id="9b5423c03a"><path d="M 0 10.078125 L 375 10.078125 L 375 198 L 0 198 Z M 0 10.078125 " clip-rule="nonzero"/></clipPath></defs><g clip-path="url(#6cd5a5a496)"><path fill="#bd0016" d="M 319.152344 190.449219 Z M 319.152344 190.449219 L 187.542969 73.890625 L 55.851562 190.5 L 55.851562 357.117188 C 55.851562 361.421875 59.328125 364.875 63.632812 364.875 L 145.929688 364.875 L 145.929688 291.820312 C 145.929688 287.515625 149.382812 284.039062 153.6875 284.039062 L 221.308594 284.039062 C 225.613281 284.039062 229.066406 287.515625 229.066406 291.820312 L 229.066406 364.875 L 311.390625 364.875 C 315.691406 364.875 319.144531 361.421875 319.144531 357.117188 L 319.144531 190.441406 Z M 55.851562 190.5 Z M 55.851562 190.5 " fill-opacity="1" fill-rule="nonzero"/></g><g clip-path="url(#9b5423c03a)"><path fill="#bd0016" d="M 186.773438 10.105469 L 0 175.480469 L 19.675781 197.675781 L 187.539062 49.03125 L 355.363281 197.675781 L 375 175.480469 L 188.269531 10.105469 L 187.542969 10.945312 L 186.777344 10.105469 Z M 186.773438 10.105469 " fill-opacity="1" fill-rule="nonzero"/></g><path fill="#bd0016" d="M 55.851562 33.910156 L 103.199219 33.910156 L 102.785156 61.953125 L 55.851562 104.355469 Z M 55.851562 33.910156 " fill-opacity="1" fill-rule="nonzero"/></svg>