<svg xmlns="http://www.w3.org/2000/svg" xmlns:xlink="http://www.w3.org/1999/xlink" width="500" zoomAndPan="magnify" viewBox="0 0 375 374.999991" height="500" preserveAspectRatio="xMidYMid meet" version="1.0"><path fill="#e1e1e1" d="M 254.472656 148.511719 C 253.164062 174.441406 242.035156 199.710938 221.207031 218.503906 C 200.441406 237.296875 174.195312 245.820312 148.246094 244.519531 C 122.296875 243.1875 97.03125 232.074219 78.21875 211.300781 C 59.449219 190.492188 50.964844 164.25 52.234375 138.269531 C 53.558594 112.355469 64.679688 87.089844 85.464844 68.308594 C 106.261719 49.53125 132.515625 40.996094 158.453125 42.308594 C 184.417969 43.609375 209.660156 54.722656 228.457031 75.515625 C 247.25 96.292969 255.734375 122.5625 254.472656 148.511719 Z M 356.421875 332.882812 L 264.476562 231.136719 C 283.144531 207.546875 293.4375 179.257812 294.898438 150.578125 C 296.773438 114.402344 284.695312 77.34375 258.519531 48.351562 C 232.3125 19.367188 196.632812 3.660156 160.492188 1.851562 C 124.328125 -0.0078125 87.257812 12.042969 58.332031 38.246094 C 29.300781 64.46875 13.621094 100.097656 11.8125 136.238281 C 9.917969 172.394531 21.984375 209.457031 48.175781 238.445312 C 74.386719 267.429688 110.058594 283.152344 146.214844 284.960938 C 174.882812 286.429688 204.105469 279.003906 229.453125 262.804688 L 321.367188 364.535156 C 330.125 374.230469 345.0625 374.960938 354.730469 366.222656 C 364.421875 357.480469 365.164062 342.542969 356.421875 332.882812 " fill-opacity="1" fill-rule="nonzero"/></svg>