<svg xmlns="http://www.w3.org/2000/svg" xmlns:xlink="http://www.w3.org/1999/xlink" width="500" zoomAndPan="magnify" viewBox="0 0 375 374.999991" height="500" preserveAspectRatio="xMidYMid meet" version="1.0"><defs><clipPath id="10b4a873c6"><path d="M 0 273 L 375 273 L 375 320.109375 L 0 320.109375 Z M 0 273 " clip-rule="nonzero"/></clipPath><clipPath id="e6fd488ca6"><path d="M 0 54.609375 L 375 54.609375 L 375 102 L 0 102 Z M 0 54.609375 " clip-rule="nonzero"/></clipPath></defs><path fill="#e1e1e1" d="M 351.5625 164.0625 L 23.4375 164.0625 C 10.492188 164.0625 0 174.554688 0 187.5 C 0 200.445312 10.492188 210.9375 23.4375 210.9375 L 351.5625 210.9375 C 364.507812 210.9375 375 200.445312 375 187.5 C 375 174.554688 364.507812 164.0625 351.5625 164.0625 Z M 351.5625 164.0625 " fill-opacity="1" fill-rule="nonzero"/><g clip-path="url(#10b4a873c6)"><path fill="#e1e1e1" d="M 351.5625 273.4375 L 23.4375 273.4375 C 10.492188 273.4375 0 283.929688 0 296.875 C 0 309.820312 10.492188 320.3125 23.4375 320.3125 L 351.5625 320.3125 C 364.507812 320.3125 375 309.820312 375 296.875 C 375 283.929688 364.507812 273.4375 351.5625 273.4375 Z M 351.5625 273.4375 " fill-opacity="1" fill-rule="nonzero"/></g><g clip-path="url(#e6fd488ca6)"><path fill="#e1e1e1" d="M 23.4375 101.5625 L 351.5625 101.5625 C 364.507812 101.5625 375 91.070312 375 78.125 C 375 65.179688 364.507812 54.6875 351.5625 54.6875 L 23.4375 54.6875 C 10.492188 54.6875 0 65.179688 0 78.125 C 0 91.070312 10.492188 101.5625 23.4375 101.5625 Z M 23.4375 101.5625 " fill-opacity="1" fill-rule="nonzero"/></g></svg>