<svg xmlns="http://www.w3.org/2000/svg" xmlns:xlink="http://www.w3.org/1999/xlink" width="500" zoomAndPan="magnify" viewBox="0 0 375 374.999991" height="500" preserveAspectRatio="xMidYMid meet" version="1.0"><path fill="#e1e1e1" d="M 296.875 203.125 C 288.28125 203.125 281.25 210.15625 281.25 218.75 L 281.25 312.5 C 281.25 329.6875 267.1875 343.75 250 343.75 L 62.5 343.75 C 45.3125 343.75 31.25 329.6875 31.25 312.5 L 31.25 125 C 31.25 107.8125 45.3125 93.75 62.5 93.75 L 156.25 93.75 C 164.84375 93.75 171.875 86.71875 171.875 78.125 C 171.875 69.53125 164.84375 62.5 156.25 62.5 L 62.5 62.5 C 27.96875 62.5 0 90.46875 0 125 L 0 312.5 C 0 347.03125 27.96875 375 62.5 375 L 250 375 C 284.53125 375 312.5 347.03125 312.5 312.5 L 312.5 218.75 C 312.5 210.15625 305.46875 203.125 296.875 203.125 Z M 296.875 203.125 " fill-opacity="1" fill-rule="nonzero"/><path fill="#e1e1e1" d="M 359.375 0 L 203.125 0 C 194.53125 0 187.5 7.03125 187.5 15.625 C 187.5 24.21875 194.53125 31.25 203.125 31.25 L 321.71875 31.25 L 114.0625 238.90625 C 107.96875 245 107.96875 254.84375 114.0625 260.9375 C 117.1875 264.0625 121.09375 265.46875 125.15625 265.46875 C 129.21875 265.46875 133.125 263.90625 136.25 260.9375 L 343.90625 53.28125 L 343.90625 171.875 C 343.90625 180.46875 350.9375 187.5 359.53125 187.5 C 368.125 187.5 375.15625 180.46875 375.15625 171.875 L 375.15625 15.625 C 375.15625 7.03125 368.125 0 359.53125 0 Z M 359.375 0 " fill-opacity="1" fill-rule="nonzero"/></svg>