<svg xmlns="http://www.w3.org/2000/svg" xmlns:xlink="http://www.w3.org/1999/xlink" width="500" zoomAndPan="magnify" viewBox="0 0 375 374.999991" height="500" preserveAspectRatio="xMidYMid meet" version="1.0"><path fill="#bd0016" d="M 77.222656 151.503906 C 76.65625 150.949219 76.046875 150.453125 75.394531 150.007812 C 74.738281 149.566406 74.050781 149.183594 73.328125 148.867188 C 72.605469 148.546875 71.859375 148.296875 71.09375 148.109375 C 70.324219 147.925781 69.546875 147.8125 68.757812 147.769531 C 67.96875 147.726562 67.183594 147.753906 66.398438 147.851562 C 65.613281 147.949219 64.847656 148.117188 64.09375 148.355469 C 63.339844 148.589844 62.613281 148.894531 61.914062 149.261719 C 61.214844 149.628906 60.554688 150.058594 59.933594 150.546875 C 60.769531 147.660156 61.707031 144.804688 62.738281 141.984375 C 63.769531 139.160156 64.894531 136.375 66.113281 133.628906 C 67.335938 130.882812 68.644531 128.179688 70.050781 125.523438 C 71.453125 122.867188 72.945312 120.261719 74.523438 117.703125 C 76.105469 115.148438 77.769531 112.648438 79.519531 110.203125 C 81.265625 107.761719 83.097656 105.378906 85.007812 103.058594 C 86.917969 100.742188 88.90625 98.488281 90.96875 96.304688 C 93.035156 94.121094 95.167969 92.007812 97.375 89.96875 C 99.582031 87.929688 101.855469 85.964844 104.195312 84.078125 C 106.535156 82.195312 108.9375 80.390625 111.398438 78.667969 C 113.859375 76.945312 116.378906 75.304688 118.949219 73.753906 C 121.523438 72.203125 124.148438 70.738281 126.820312 69.363281 C 129.492188 67.988281 132.207031 66.707031 134.964844 65.515625 C 137.726562 64.328125 140.523438 63.230469 143.355469 62.230469 C 146.1875 61.230469 149.054688 60.328125 151.949219 59.519531 C 154.84375 58.714844 157.761719 58.003906 160.703125 57.398438 C 163.648438 56.789062 166.605469 56.28125 169.585938 55.871094 C 172.5625 55.464844 175.550781 55.15625 178.546875 54.953125 C 181.546875 54.746094 184.546875 54.640625 187.550781 54.640625 C 190.558594 54.636719 193.558594 54.738281 196.558594 54.941406 C 199.554688 55.140625 202.542969 55.445312 205.519531 55.847656 C 208.5 56.253906 211.460938 56.757812 214.402344 57.363281 C 217.347656 57.964844 220.265625 58.671875 223.164062 59.472656 C 226.058594 60.277344 228.921875 61.175781 231.757812 62.171875 C 234.59375 63.167969 237.390625 64.261719 240.152344 65.449219 C 242.914062 66.632812 245.628906 67.914062 248.304688 69.285156 C 250.980469 70.65625 253.601562 72.117188 256.179688 73.664062 C 258.753906 75.214844 261.273438 76.847656 263.738281 78.566406 C 266.203125 80.285156 268.605469 82.085938 270.949219 83.96875 C 273.289062 85.851562 275.566406 87.8125 277.773438 89.847656 C 279.984375 91.886719 282.121094 93.996094 284.1875 96.175781 C 286.253906 98.359375 288.246094 100.609375 290.160156 102.925781 C 290.71875 103.597656 291.335938 104.210938 292.015625 104.757812 C 292.695312 105.308594 293.421875 105.789062 294.195312 106.195312 C 294.96875 106.601562 295.773438 106.929688 296.613281 107.179688 C 297.453125 107.429688 298.304688 107.59375 299.175781 107.671875 C 300.046875 107.753906 300.917969 107.746094 301.785156 107.65625 C 302.65625 107.566406 303.507812 107.390625 304.34375 107.132812 C 305.179688 106.871094 305.980469 106.535156 306.75 106.117188 C 307.515625 105.699219 308.238281 105.214844 308.910156 104.652344 C 309.582031 104.09375 310.191406 103.476562 310.742188 102.796875 C 311.292969 102.117188 311.773438 101.390625 312.179688 100.617188 C 312.585938 99.84375 312.914062 99.039062 313.164062 98.199219 C 313.414062 97.363281 313.578125 96.507812 313.65625 95.636719 C 313.738281 94.765625 313.730469 93.898438 313.640625 93.027344 C 313.550781 92.15625 313.375 91.304688 313.117188 90.46875 C 312.855469 89.636719 312.519531 88.832031 312.101562 88.066406 C 311.683594 87.296875 311.195312 86.578125 310.636719 85.902344 C 308.238281 82.996094 305.738281 80.179688 303.136719 77.449219 C 300.539062 74.722656 297.84375 72.085938 295.058594 69.550781 C 292.269531 67.011719 289.398438 64.574219 286.4375 62.238281 C 283.480469 59.902344 280.441406 57.675781 277.324219 55.558594 C 274.207031 53.4375 271.019531 51.429688 267.757812 49.539062 C 264.5 47.644531 261.175781 45.867188 257.792969 44.210938 C 254.40625 42.550781 250.96875 41.015625 247.472656 39.601562 C 243.980469 38.1875 240.4375 36.898438 236.851562 35.734375 C 233.269531 34.570312 229.644531 33.535156 225.988281 32.628906 C 222.328125 31.722656 218.640625 30.945312 214.929688 30.300781 C 211.214844 29.65625 207.480469 29.140625 203.730469 28.761719 C 199.980469 28.378906 196.222656 28.132812 192.453125 28.015625 C 188.6875 27.902344 184.917969 27.921875 181.152344 28.074219 C 177.386719 28.226562 173.628906 28.511719 169.882812 28.929688 C 166.136719 29.347656 162.410156 29.898438 158.703125 30.578125 C 154.996094 31.261719 151.320312 32.074219 147.667969 33.019531 C 144.019531 33.960938 140.40625 35.03125 136.832031 36.230469 C 133.261719 37.429688 129.734375 38.753906 126.253906 40.203125 C 122.773438 41.652344 119.347656 43.222656 115.980469 44.917969 C 112.613281 46.609375 109.308594 48.417969 106.066406 50.34375 C 102.828125 52.269531 99.660156 54.308594 96.5625 56.457031 C 93.46875 58.609375 90.449219 60.863281 87.515625 63.230469 C 84.578125 65.59375 81.730469 68.058594 78.96875 70.625 C 76.207031 73.191406 73.539062 75.851562 70.96875 78.605469 C 68.394531 81.363281 65.921875 84.203125 63.550781 87.132812 C 61.179688 90.066406 58.917969 93.074219 56.757812 96.164062 C 54.601562 99.257812 52.554688 102.421875 50.621094 105.65625 C 48.6875 108.890625 46.871094 112.191406 45.171875 115.554688 C 43.46875 118.921875 41.890625 122.339844 40.433594 125.816406 C 38.976562 129.292969 37.644531 132.816406 36.4375 136.386719 C 35.230469 139.957031 34.148438 143.566406 33.195312 147.214844 C 32.246094 150.863281 31.421875 154.539062 30.730469 158.246094 L 24.082031 151.597656 C 23.460938 150.996094 22.789062 150.460938 22.0625 149.992188 C 21.339844 149.523438 20.574219 149.128906 19.773438 148.808594 C 18.96875 148.488281 18.144531 148.25 17.296875 148.089844 C 16.449219 147.929688 15.59375 147.855469 14.730469 147.863281 C 13.867188 147.871094 13.011719 147.960938 12.164062 148.136719 C 11.320312 148.308594 10.5 148.5625 9.703125 148.898438 C 8.90625 149.230469 8.148438 149.636719 7.433594 150.121094 C 6.714844 150.601562 6.050781 151.148438 5.441406 151.757812 C 4.832031 152.367188 4.285156 153.03125 3.804688 153.75 C 3.320312 154.464844 2.914062 155.222656 2.582031 156.019531 C 2.246094 156.816406 1.992188 157.636719 1.820312 158.480469 C 1.644531 159.328125 1.554688 160.183594 1.546875 161.046875 C 1.539062 161.910156 1.613281 162.765625 1.773438 163.613281 C 1.933594 164.460938 2.171875 165.289062 2.492188 166.089844 C 2.8125 166.890625 3.207031 167.65625 3.675781 168.378906 C 4.144531 169.105469 4.679688 169.777344 5.277344 170.398438 L 31.875 196.996094 C 32.492188 197.613281 33.164062 198.164062 33.890625 198.648438 C 34.617188 199.132812 35.382812 199.542969 36.1875 199.875 C 36.996094 200.210938 37.828125 200.460938 38.683594 200.632812 C 39.539062 200.804688 40.402344 200.886719 41.277344 200.886719 C 42.148438 200.886719 43.015625 200.804688 43.871094 200.632812 C 44.726562 200.460938 45.558594 200.210938 46.363281 199.875 C 47.171875 199.542969 47.9375 199.132812 48.664062 198.648438 C 49.390625 198.164062 50.0625 197.613281 50.679688 196.996094 L 77.273438 170.398438 C 77.894531 169.777344 78.453125 169.105469 78.941406 168.375 C 79.429688 167.644531 79.839844 166.871094 80.175781 166.0625 C 80.511719 165.25 80.765625 164.414062 80.9375 163.550781 C 81.105469 162.6875 81.191406 161.816406 81.1875 160.941406 C 81.183594 160.0625 81.097656 159.191406 80.921875 158.332031 C 80.746094 157.46875 80.488281 156.632812 80.148438 155.824219 C 79.808594 155.015625 79.390625 154.246094 78.898438 153.519531 C 78.40625 152.789062 77.847656 152.117188 77.222656 151.503906 Z M 77.222656 151.503906 " fill-opacity="1" fill-rule="nonzero"/><path fill="#bd0016" d="M 369.773438 204.695312 L 343.179688 178.097656 C 342.5625 177.480469 341.890625 176.929688 341.164062 176.445312 C 340.4375 175.960938 339.671875 175.550781 338.863281 175.214844 C 338.058594 174.882812 337.226562 174.628906 336.371094 174.460938 C 335.515625 174.289062 334.648438 174.203125 333.777344 174.203125 C 332.902344 174.203125 332.039062 174.289062 331.183594 174.460938 C 330.328125 174.628906 329.496094 174.882812 328.6875 175.214844 C 327.882812 175.550781 327.117188 175.960938 326.390625 176.445312 C 325.664062 176.929688 324.992188 177.480469 324.375 178.097656 L 297.777344 204.695312 C 297.160156 205.3125 296.609375 205.984375 296.125 206.710938 C 295.640625 207.433594 295.230469 208.203125 294.898438 209.007812 C 294.5625 209.8125 294.3125 210.644531 294.140625 211.503906 C 293.972656 212.359375 293.886719 213.222656 293.886719 214.097656 C 293.886719 214.96875 293.972656 215.832031 294.140625 216.691406 C 294.3125 217.546875 294.5625 218.378906 294.898438 219.183594 C 295.230469 219.988281 295.640625 220.757812 296.125 221.480469 C 296.609375 222.207031 297.160156 222.878906 297.777344 223.496094 C 298.34375 224.050781 298.953125 224.546875 299.605469 224.992188 C 300.261719 225.433594 300.949219 225.816406 301.671875 226.132812 C 302.394531 226.453125 303.140625 226.703125 303.90625 226.890625 C 304.675781 227.074219 305.453125 227.1875 306.242188 227.230469 C 307.03125 227.273438 307.816406 227.246094 308.601562 227.148438 C 309.386719 227.050781 310.152344 226.882812 310.90625 226.644531 C 311.660156 226.410156 312.386719 226.105469 313.085938 225.738281 C 313.785156 225.371094 314.445312 224.941406 315.066406 224.453125 C 314.230469 227.339844 313.292969 230.195312 312.261719 233.015625 C 311.230469 235.839844 310.105469 238.625 308.886719 241.371094 C 307.664062 244.117188 306.355469 246.820312 304.949219 249.476562 C 303.546875 252.132812 302.054688 254.738281 300.476562 257.296875 C 298.894531 259.851562 297.230469 262.351562 295.480469 264.796875 C 293.734375 267.238281 291.902344 269.621094 289.992188 271.941406 C 288.082031 274.257812 286.09375 276.511719 284.03125 278.695312 C 281.964844 280.878906 279.832031 282.992188 277.625 285.03125 C 275.417969 287.070312 273.144531 289.035156 270.804688 290.921875 C 268.464844 292.804688 266.0625 294.609375 263.601562 296.332031 C 261.140625 298.054688 258.621094 299.695312 256.050781 301.246094 C 253.476562 302.796875 250.851562 304.261719 248.179688 305.636719 C 245.507812 307.011719 242.792969 308.292969 240.035156 309.484375 C 237.273438 310.671875 234.476562 311.769531 231.644531 312.769531 C 228.8125 313.769531 225.945312 314.671875 223.050781 315.480469 C 220.15625 316.285156 217.238281 316.996094 214.296875 317.601562 C 211.351562 318.210938 208.390625 318.71875 205.414062 319.128906 C 202.4375 319.535156 199.449219 319.84375 196.453125 320.046875 C 193.453125 320.253906 190.453125 320.359375 187.449219 320.359375 C 184.441406 320.363281 181.441406 320.261719 178.441406 320.058594 C 175.445312 319.859375 172.457031 319.554688 169.480469 319.152344 C 166.5 318.746094 163.539062 318.242188 160.597656 317.636719 C 157.652344 317.035156 154.734375 316.328125 151.835938 315.527344 C 148.941406 314.722656 146.078125 313.824219 143.242188 312.828125 C 140.40625 311.832031 137.609375 310.738281 134.847656 309.550781 C 132.085938 308.363281 129.371094 307.085938 126.695312 305.714844 C 124.019531 304.34375 121.398438 302.882812 118.820312 301.335938 C 116.246094 299.785156 113.726562 298.152344 111.261719 296.433594 C 108.796875 294.714844 106.394531 292.914062 104.050781 291.03125 C 101.710938 289.148438 99.433594 287.1875 97.222656 285.148438 C 95.015625 283.113281 92.878906 281.003906 90.8125 278.824219 C 88.746094 276.640625 86.753906 274.390625 84.839844 272.074219 C 84.28125 271.402344 83.664062 270.789062 82.984375 270.242188 C 82.304688 269.691406 81.578125 269.210938 80.804688 268.804688 C 80.03125 268.398438 79.226562 268.070312 78.386719 267.820312 C 77.546875 267.570312 76.695312 267.40625 75.824219 267.328125 C 74.953125 267.246094 74.082031 267.253906 73.214844 267.34375 C 72.34375 267.433594 71.492188 267.609375 70.65625 267.867188 C 69.820312 268.128906 69.019531 268.464844 68.25 268.882812 C 67.484375 269.300781 66.761719 269.785156 66.089844 270.347656 C 65.417969 270.90625 64.808594 271.523438 64.257812 272.203125 C 63.707031 272.882812 63.226562 273.609375 62.820312 274.382812 C 62.414062 275.15625 62.085938 275.960938 61.835938 276.800781 C 61.585938 277.636719 61.421875 278.492188 61.34375 279.363281 C 61.261719 280.234375 61.269531 281.101562 61.359375 281.972656 C 61.449219 282.84375 61.625 283.695312 61.882812 284.53125 C 62.144531 285.363281 62.480469 286.167969 62.898438 286.933594 C 63.316406 287.703125 63.804688 288.421875 64.363281 289.097656 C 66.761719 292.003906 69.261719 294.820312 71.863281 297.550781 C 74.460938 300.277344 77.15625 302.914062 79.941406 305.449219 C 82.730469 307.988281 85.601562 310.425781 88.5625 312.761719 C 91.519531 315.097656 94.558594 317.324219 97.675781 319.441406 C 100.792969 321.5625 103.980469 323.570312 107.242188 325.460938 C 110.5 327.355469 113.824219 329.132812 117.207031 330.789062 C 120.59375 332.449219 124.03125 333.984375 127.527344 335.398438 C 131.019531 336.8125 134.5625 338.101562 138.148438 339.265625 C 141.730469 340.429688 145.355469 341.464844 149.011719 342.371094 C 152.671875 343.277344 156.359375 344.054688 160.070312 344.699219 C 163.785156 345.34375 167.519531 345.859375 171.269531 346.238281 C 175.019531 346.621094 178.777344 346.867188 182.546875 346.984375 C 186.3125 347.097656 190.082031 347.078125 193.847656 346.925781 C 197.613281 346.773438 201.371094 346.488281 205.117188 346.070312 C 208.863281 345.652344 212.589844 345.101562 216.296875 344.421875 C 220.003906 343.738281 223.679688 342.925781 227.332031 341.980469 C 230.980469 341.039062 234.59375 339.96875 238.167969 338.769531 C 241.738281 337.570312 245.265625 336.246094 248.746094 334.796875 C 252.226562 333.347656 255.652344 331.777344 259.019531 330.082031 C 262.386719 328.390625 265.691406 326.582031 268.933594 324.65625 C 272.171875 322.730469 275.339844 320.691406 278.4375 318.542969 C 281.53125 316.390625 284.550781 314.136719 287.484375 311.769531 C 290.421875 309.40625 293.269531 306.941406 296.03125 304.375 C 298.792969 301.808594 301.460938 299.148438 304.03125 296.394531 C 306.605469 293.636719 309.078125 290.796875 311.449219 287.867188 C 313.820312 284.933594 316.082031 281.925781 318.242188 278.835938 C 320.398438 275.742188 322.445312 272.578125 324.378906 269.34375 C 326.3125 266.109375 328.128906 262.808594 329.828125 259.445312 C 331.53125 256.078125 333.109375 252.660156 334.566406 249.183594 C 336.023438 245.707031 337.355469 242.183594 338.5625 238.613281 C 339.769531 235.042969 340.851562 231.433594 341.804688 227.785156 C 342.753906 224.136719 343.578125 220.460938 344.269531 216.753906 L 350.917969 223.402344 C 351.539062 224.003906 352.210938 224.539062 352.9375 225.007812 C 353.660156 225.476562 354.425781 225.871094 355.226562 226.191406 C 356.03125 226.511719 356.855469 226.75 357.703125 226.910156 C 358.550781 227.066406 359.40625 227.144531 360.269531 227.136719 C 361.132812 227.128906 361.988281 227.039062 362.835938 226.863281 C 363.679688 226.691406 364.5 226.4375 365.296875 226.101562 C 366.09375 225.769531 366.851562 225.359375 367.566406 224.878906 C 368.285156 224.398438 368.949219 223.851562 369.558594 223.242188 C 370.167969 222.632812 370.714844 221.96875 371.195312 221.25 C 371.675781 220.535156 372.085938 219.777344 372.417969 218.980469 C 372.753906 218.183594 373.007812 217.363281 373.179688 216.519531 C 373.355469 215.671875 373.445312 214.816406 373.453125 213.953125 C 373.460938 213.089844 373.382812 212.234375 373.226562 211.386719 C 373.066406 210.539062 372.828125 209.710938 372.507812 208.910156 C 372.1875 208.109375 371.792969 207.34375 371.324219 206.621094 C 370.855469 205.894531 370.320312 205.222656 369.71875 204.601562 Z M 369.773438 204.695312 " fill-opacity="1" fill-rule="nonzero"/></svg>