<svg xmlns="http://www.w3.org/2000/svg" xmlns:xlink="http://www.w3.org/1999/xlink" width="500" zoomAndPan="magnify" viewBox="0 0 375 374.999991" height="500" preserveAspectRatio="xMidYMid meet" version="1.0"><defs><clipPath id="1f0c9857f2"><path d="M 117.710938 71.113281 L 262.5 71.113281 L 262.5 215.816406 L 117.710938 215.816406 Z M 117.710938 71.113281 " clip-rule="nonzero"/></clipPath><clipPath id="5684bfc88f"><path d="M 112.5 71.058594 L 257.5 71.058594 L 257.5 216 L 112.5 216 Z M 112.5 71.058594 " clip-rule="nonzero"/></clipPath></defs><g clip-path="url(#1f0c9857f2)"><path fill="#12e1b9" d="M 120.316406 200.652344 C 116.84375 204.125 116.84375 209.742188 120.316406 213.214844 C 123.789062 216.6875 129.402344 216.6875 132.875 213.214844 C 136.347656 209.742188 136.347656 204.125 132.875 200.652344 C 129.402344 197.210938 123.757812 197.210938 120.316406 200.652344 Z M 174.203125 188.46875 C 173.769531 189.453125 172.496094 189.714844 171.714844 188.960938 C 166.503906 183.953125 162.800781 178.542969 160.976562 172.550781 C 155.015625 170.699219 149.601562 166.996094 144.625 161.757812 C 143.871094 160.976562 144.132812 159.703125 145.117188 159.269531 L 150.875 156.808594 L 138.835938 156.488281 C 137.59375 156.460938 136.492188 157.328125 136.230469 158.542969 L 135.191406 163.433594 C 134.988281 164.449219 135.277344 165.492188 136 166.214844 L 145 175.214844 C 146.015625 176.226562 146.042969 177.875 145.058594 178.917969 L 129.34375 195.878906 C 131.28125 196.371094 133.105469 197.355469 134.609375 198.859375 C 136.117188 200.363281 137.101562 202.1875 137.59375 204.125 L 154.550781 188.410156 C 155.621094 187.425781 157.242188 187.457031 158.257812 188.46875 L 167.082031 197.296875 C 167.777344 197.992188 168.761719 198.308594 169.746094 198.136719 L 174.78125 197.265625 C 176.054688 197.0625 176.980469 195.9375 176.953125 194.660156 L 176.691406 182.710938 Z M 262.5 71.113281 L 255.09375 98.753906 L 168.152344 181.148438 C 166.128906 178.371094 164.625 175.53125 163.640625 172.640625 L 243.71875 92.558594 C 244.441406 91.835938 244.441406 90.621094 243.71875 89.894531 C 243.34375 89.519531 242.878906 89.347656 242.386719 89.347656 C 241.894531 89.347656 241.433594 89.519531 241.054688 89.894531 L 161.007812 169.917969 C 157.878906 168.847656 154.8125 167.167969 151.832031 164.910156 L 234.804688 78.378906 L 262.5 71.113281 " fill-opacity="1" fill-rule="nonzero"/></g><g clip-path="url(#5684bfc88f)"><path fill="#12e1b9" d="M 254.714844 200.652344 C 251.242188 197.179688 245.628906 197.179688 242.15625 200.652344 C 238.683594 204.125 238.683594 209.742188 242.15625 213.214844 C 245.628906 216.6875 251.242188 216.6875 254.714844 213.214844 C 258.1875 209.742188 258.1875 204.125 254.714844 200.652344 Z M 245.628906 195.90625 L 229.914062 178.949219 C 228.929688 177.875 228.957031 176.257812 229.972656 175.242188 L 238.972656 166.242188 C 239.695312 165.519531 240.015625 164.476562 239.78125 163.464844 L 238.742188 158.574219 C 238.480469 157.359375 237.378906 156.488281 236.136719 156.519531 L 224.097656 156.835938 L 229.855469 159.296875 C 230.839844 159.730469 231.101562 161.003906 230.347656 161.785156 C 225.371094 167.023438 219.957031 170.757812 213.996094 172.582031 C 212.171875 178.542969 208.46875 183.984375 203.257812 188.992188 C 202.476562 189.742188 201.203125 189.480469 200.769531 188.5 L 198.28125 182.769531 L 198.019531 194.722656 C 197.992188 195.992188 198.917969 197.121094 200.191406 197.324219 L 205.226562 198.195312 C 206.183594 198.367188 207.195312 198.050781 207.890625 197.355469 L 216.71875 188.527344 C 217.730469 187.515625 219.378906 187.484375 220.421875 188.46875 L 237.378906 204.183594 C 237.871094 202.246094 238.855469 200.421875 240.363281 198.917969 C 241.867188 197.382812 243.71875 196.371094 245.628906 195.90625 Z M 223.171875 164.910156 L 206.933594 147.980469 L 199.292969 155.214844 L 213.996094 169.917969 C 217.152344 168.875 220.21875 167.199219 223.171875 164.910156 Z M 211.390625 172.640625 L 196.574219 157.820312 L 189.394531 164.59375 L 206.878906 181.148438 C 208.902344 178.371094 210.40625 175.53125 211.390625 172.640625 Z M 140.195312 78.378906 L 185.691406 125.839844 L 177.964844 133.886719 L 133.976562 89.894531 C 133.597656 89.519531 133.136719 89.347656 132.644531 89.347656 C 132.152344 89.347656 131.6875 89.519531 131.3125 89.894531 C 130.589844 90.621094 130.589844 91.835938 131.3125 92.558594 L 175.359375 136.609375 L 167.980469 144.304688 L 119.910156 98.753906 L 112.5 71.113281 L 140.195312 78.378906 " fill-opacity="1" fill-rule="nonzero"/></g><path fill="#f3f4f4" d="M 159.003906 244.65625 L 166.339844 244.65625 C 168.3125 244.65625 169.921875 245.183594 171.167969 246.242188 C 172.414062 247.292969 173.035156 248.796875 173.035156 250.75 C 173.035156 252.261719 172.65625 253.527344 171.902344 254.546875 C 171.148438 255.566406 170.125 256.285156 168.832031 256.695312 L 175.894531 265.179688 L 169.949219 265.179688 L 163.683594 257.070312 L 163.683594 265.179688 L 159.003906 265.179688 Z M 163.683594 253.765625 L 164.230469 253.765625 C 164.65625 253.765625 165.019531 253.757812 165.316406 253.742188 C 165.617188 253.722656 165.960938 253.660156 166.339844 253.5625 C 166.726562 253.464844 167.03125 253.324219 167.261719 253.140625 C 167.496094 252.957031 167.695312 252.691406 167.855469 252.34375 C 168.023438 251.996094 168.105469 251.574219 168.105469 251.078125 C 168.105469 250.578125 168.023438 250.152344 167.855469 249.804688 C 167.695312 249.457031 167.496094 249.191406 167.261719 249.007812 C 167.03125 248.824219 166.726562 248.683594 166.339844 248.585938 C 165.960938 248.488281 165.617188 248.429688 165.316406 248.414062 C 165.019531 248.398438 164.65625 248.390625 164.230469 248.390625 L 163.683594 248.390625 Z M 163.683594 253.765625 " fill-opacity="1" fill-rule="nonzero"/><path fill="#f3f4f4" d="M 179.300781 244.65625 L 186.785156 244.65625 C 188.878906 244.65625 190.570312 245.195312 191.863281 246.273438 C 193.15625 247.351562 193.800781 248.917969 193.800781 250.976562 C 193.800781 253.035156 193.144531 254.648438 191.832031 255.820312 C 190.523438 256.988281 188.84375 257.570312 186.785156 257.570312 L 183.980469 257.570312 L 183.980469 265.179688 L 179.300781 265.179688 Z M 183.980469 253.835938 L 185.292969 253.835938 C 186.339844 253.835938 187.199219 253.625 187.871094 253.203125 C 188.542969 252.78125 188.878906 252.089844 188.878906 251.125 C 188.878906 250.144531 188.542969 249.445312 187.871094 249.023438 C 187.199219 248.601562 186.339844 248.390625 185.292969 248.390625 L 183.980469 248.390625 Z M 183.980469 253.835938 " fill-opacity="1" fill-rule="nonzero"/><path fill="#f3f4f4" d="M 216.910156 253.6875 L 216.910156 258.140625 C 216.378906 260.578125 215.214844 262.425781 213.425781 263.679688 C 211.636719 264.929688 209.640625 265.554688 207.433594 265.554688 C 204.660156 265.554688 202.300781 264.519531 200.355469 262.445312 C 198.40625 260.371094 197.433594 257.867188 197.433594 254.929688 C 197.433594 251.945312 198.386719 249.425781 200.292969 247.367188 C 202.203125 245.308594 204.582031 244.28125 207.433594 244.28125 C 210.765625 244.28125 213.402344 245.449219 215.347656 247.789062 L 212.285156 251.148438 C 211.191406 249.394531 209.664062 248.515625 207.707031 248.515625 C 206.261719 248.515625 205.03125 249.144531 204.011719 250.398438 C 202.996094 251.648438 202.488281 253.160156 202.488281 254.929688 C 202.488281 256.675781 202.996094 258.164062 204.011719 259.398438 C 205.03125 260.632812 206.261719 261.25 207.707031 261.25 C 208.898438 261.25 209.9375 260.890625 210.824219 260.171875 C 211.714844 259.449219 212.160156 258.488281 212.160156 257.296875 L 207.433594 257.296875 L 207.433594 253.6875 Z M 216.910156 253.6875 " fill-opacity="1" fill-rule="nonzero"/><path fill="#f3f4f4" d="M 80.644531 287.695312 L 80.644531 295.929688 L 75.964844 295.929688 L 75.964844 275.40625 L 80.644531 275.40625 L 80.644531 283.59375 L 87.261719 283.59375 L 87.261719 275.40625 L 91.933594 275.40625 L 91.933594 295.929688 L 87.261719 295.929688 L 87.261719 287.695312 Z M 80.644531 287.695312 " fill-opacity="1" fill-rule="nonzero"/><path fill="#f3f4f4" d="M 107.828125 275.40625 L 116.109375 295.929688 L 111.085938 295.929688 L 109.570312 291.828125 L 101.757812 291.828125 L 100.242188 295.929688 L 95.21875 295.929688 L 103.5 275.40625 Z M 107.976562 287.71875 L 105.6875 281.75 L 105.640625 281.75 L 103.351562 287.71875 Z M 107.976562 287.71875 " fill-opacity="1" fill-rule="nonzero"/><path fill="#f3f4f4" d="M 124.074219 283.195312 L 124.074219 295.929688 L 119.394531 295.929688 L 119.394531 275.40625 L 124.074219 275.40625 L 132.230469 288.140625 L 132.277344 288.140625 L 132.277344 275.40625 L 136.957031 275.40625 L 136.957031 295.929688 L 132.277344 295.929688 L 124.121094 283.195312 Z M 124.074219 283.195312 " fill-opacity="1" fill-rule="nonzero"/><path fill="#f3f4f4" d="M 142.425781 275.40625 L 148.371094 275.40625 C 151.226562 275.40625 153.664062 276.378906 155.683594 278.328125 C 157.710938 280.277344 158.722656 282.71875 158.722656 285.65625 C 158.722656 288.609375 157.714844 291.058594 155.699219 293.007812 C 153.683594 294.957031 151.242188 295.929688 148.371094 295.929688 L 142.425781 295.929688 Z M 147.105469 291.75 L 147.824219 291.75 C 149.53125 291.75 150.929688 291.175781 152.011719 290.023438 C 153.101562 288.871094 153.652344 287.425781 153.667969 285.679688 C 153.667969 283.941406 153.125 282.488281 152.035156 281.328125 C 150.953125 280.167969 149.546875 279.585938 147.824219 279.585938 L 147.105469 279.585938 Z M 147.105469 291.75 " fill-opacity="1" fill-rule="nonzero"/><path fill="#f3f4f4" d="M 161.027344 275.40625 L 166.652344 275.40625 L 170.933594 281.976562 L 175.207031 275.40625 L 180.832031 275.40625 L 173.269531 286.726562 L 173.269531 295.929688 L 168.589844 295.929688 L 168.589844 286.726562 Z M 161.027344 275.40625 " fill-opacity="1" fill-rule="nonzero"/><path fill="#f3f4f4" d="M 198.023438 287.695312 L 198.023438 295.929688 L 193.34375 295.929688 L 193.34375 275.40625 L 198.023438 275.40625 L 198.023438 283.59375 L 204.640625 283.59375 L 204.640625 275.40625 L 209.3125 275.40625 L 209.3125 295.929688 L 204.640625 295.929688 L 204.640625 287.695312 Z M 198.023438 287.695312 " fill-opacity="1" fill-rule="nonzero"/><path fill="#f3f4f4" d="M 226.523438 275.40625 L 226.523438 279.515625 L 219.460938 279.515625 L 219.460938 283.59375 L 226.226562 283.59375 L 226.226562 287.695312 L 219.460938 287.695312 L 219.460938 291.828125 L 226.523438 291.828125 L 226.523438 295.929688 L 214.78125 295.929688 L 214.78125 275.40625 Z M 226.523438 275.40625 " fill-opacity="1" fill-rule="nonzero"/><path fill="#f3f4f4" d="M 236.375 275.40625 L 236.375 291.828125 L 243.4375 291.828125 L 243.4375 295.929688 L 231.695312 295.929688 L 231.695312 275.40625 Z M 236.375 275.40625 " fill-opacity="1" fill-rule="nonzero"/><path fill="#f3f4f4" d="M 248.238281 275.40625 L 255.722656 275.40625 C 257.816406 275.40625 259.507812 275.945312 260.800781 277.023438 C 262.089844 278.101562 262.738281 279.667969 262.738281 281.726562 C 262.738281 283.785156 262.082031 285.398438 260.769531 286.570312 C 259.460938 287.738281 257.777344 288.320312 255.722656 288.320312 L 252.917969 288.320312 L 252.917969 295.929688 L 248.238281 295.929688 Z M 252.917969 284.585938 L 254.230469 284.585938 C 255.277344 284.585938 256.136719 284.375 256.808594 283.953125 C 257.480469 283.53125 257.816406 282.839844 257.816406 281.875 C 257.816406 280.894531 257.480469 280.195312 256.808594 279.773438 C 256.136719 279.351562 255.277344 279.140625 254.230469 279.140625 L 252.917969 279.140625 Z M 252.917969 284.585938 " fill-opacity="1" fill-rule="nonzero"/><path fill="#f3f4f4" d="M 279.03125 275.40625 L 279.03125 279.515625 L 271.96875 279.515625 L 271.96875 283.59375 L 278.734375 283.59375 L 278.734375 287.695312 L 271.96875 287.695312 L 271.96875 291.828125 L 279.03125 291.828125 L 279.03125 295.929688 L 267.289062 295.929688 L 267.289062 275.40625 Z M 279.03125 275.40625 " fill-opacity="1" fill-rule="nonzero"/><path fill="#f3f4f4" d="M 284.203125 275.40625 L 291.539062 275.40625 C 293.511719 275.40625 295.121094 275.933594 296.367188 276.992188 C 297.613281 278.042969 298.234375 279.546875 298.234375 281.5 C 298.234375 283.011719 297.855469 284.277344 297.101562 285.296875 C 296.347656 286.316406 295.324219 287.035156 294.03125 287.445312 L 301.09375 295.929688 L 295.148438 295.929688 L 288.882812 287.820312 L 288.882812 295.929688 L 284.203125 295.929688 Z M 288.882812 284.515625 L 289.429688 284.515625 C 289.855469 284.515625 290.21875 284.507812 290.515625 284.492188 C 290.816406 284.472656 291.160156 284.410156 291.539062 284.3125 C 291.925781 284.214844 292.230469 284.074219 292.460938 283.890625 C 292.695312 283.707031 292.894531 283.441406 293.054688 283.09375 C 293.222656 282.746094 293.304688 282.324219 293.304688 281.828125 C 293.304688 281.328125 293.222656 280.902344 293.054688 280.554688 C 292.894531 280.207031 292.695312 279.941406 292.460938 279.757812 C 292.230469 279.574219 291.925781 279.433594 291.539062 279.335938 C 291.160156 279.238281 290.816406 279.179688 290.515625 279.164062 C 290.21875 279.148438 289.855469 279.140625 289.429688 279.140625 L 288.882812 279.140625 Z M 288.882812 284.515625 " fill-opacity="1" fill-rule="nonzero"/></svg>