<svg xmlns="http://www.w3.org/2000/svg" xmlns:xlink="http://www.w3.org/1999/xlink" width="1000" zoomAndPan="magnify" viewBox="0 0 750 749.999995" height="1000" preserveAspectRatio="xMidYMid meet" version="1.0"><defs><clipPath id="4646b74a4b"><path d="M 134.140625 123.804688 L 633.664062 123.804688 L 633.664062 623.191406 L 134.140625 623.191406 Z M 134.140625 123.804688 " clip-rule="nonzero"/></clipPath><clipPath id="f88cd2e7c8"><path d="M 116.164062 123.605469 L 616 123.605469 L 616 624 L 116.164062 624 Z M 116.164062 123.605469 " clip-rule="nonzero"/></clipPath></defs><g clip-path="url(#4646b74a4b)"><path fill="#12e1b9" d="M 143.128906 570.855469 C 131.144531 582.839844 131.144531 602.214844 143.128906 614.203125 C 155.117188 626.1875 174.488281 626.1875 186.476562 614.203125 C 198.460938 602.214844 198.460938 582.839844 186.476562 570.855469 C 174.488281 558.96875 155.015625 558.96875 143.128906 570.855469 Z M 329.101562 528.804688 C 327.601562 532.199219 323.210938 533.101562 320.515625 530.503906 C 302.535156 513.222656 289.75 494.546875 283.457031 473.875 C 262.882812 467.484375 244.207031 454.699219 227.027344 436.617188 C 224.429688 433.921875 225.328125 429.53125 228.722656 428.03125 L 248.601562 419.542969 L 207.050781 418.441406 C 202.757812 418.339844 198.960938 421.335938 198.0625 425.535156 L 194.464844 442.414062 C 193.765625 445.910156 194.765625 449.503906 197.261719 452.003906 L 228.328125 483.0625 C 231.820312 486.558594 231.917969 492.25 228.523438 495.847656 L 174.292969 554.375 C 180.980469 556.074219 187.273438 559.46875 192.46875 564.660156 C 197.664062 569.859375 201.058594 576.148438 202.757812 582.839844 L 261.285156 528.609375 C 264.980469 525.210938 270.574219 525.3125 274.070312 528.804688 L 304.535156 559.269531 C 306.929688 561.664062 310.324219 562.765625 313.722656 562.164062 L 331.097656 559.167969 C 335.496094 558.46875 338.691406 554.574219 338.589844 550.179688 L 337.691406 508.933594 Z M 633.828125 123.804688 L 608.257812 219.1875 L 308.226562 503.535156 C 301.238281 493.949219 296.042969 484.164062 292.644531 474.175781 L 569.003906 197.816406 C 571.503906 195.316406 571.503906 191.121094 569.003906 188.621094 C 567.710938 187.328125 566.109375 186.726562 564.414062 186.726562 C 562.714844 186.726562 561.117188 187.328125 559.816406 188.621094 L 283.558594 464.785156 C 272.773438 461.089844 262.183594 455.296875 251.894531 447.507812 L 538.246094 148.875 L 633.828125 123.804688 " fill-opacity="1" fill-rule="nonzero"/></g><g clip-path="url(#f88cd2e7c8)"><path fill="#12e1b9" d="M 606.957031 570.855469 C 594.972656 558.871094 575.597656 558.871094 563.613281 570.855469 C 551.628906 582.839844 551.628906 602.214844 563.613281 614.203125 C 575.597656 626.1875 594.972656 626.1875 606.957031 614.203125 C 618.945312 602.214844 618.945312 582.839844 606.957031 570.855469 Z M 575.597656 554.472656 L 521.363281 495.949219 C 517.96875 492.25 518.066406 486.660156 521.5625 483.164062 L 552.628906 452.101562 C 555.125 449.601562 556.222656 446.011719 555.425781 442.515625 L 551.828125 425.632812 C 550.929688 421.4375 547.132812 418.441406 542.839844 418.542969 L 501.292969 419.640625 L 521.164062 428.128906 C 524.558594 429.628906 525.460938 434.023438 522.863281 436.71875 C 505.683594 454.796875 487.007812 467.683594 466.433594 473.976562 C 460.140625 494.546875 447.359375 513.324219 429.378906 530.605469 C 426.679688 533.199219 422.289062 532.300781 420.789062 528.90625 L 412.199219 509.132812 L 411.300781 550.382812 C 411.199219 554.773438 414.398438 558.667969 418.792969 559.371094 L 436.167969 562.367188 C 439.464844 562.964844 442.960938 561.867188 445.359375 559.46875 L 475.824219 529.003906 C 479.320312 525.511719 485.011719 525.414062 488.605469 528.804688 L 547.132812 583.039062 C 548.832031 576.351562 552.230469 570.058594 557.421875 564.863281 C 562.613281 559.570312 569.003906 556.074219 575.597656 554.472656 Z M 498.09375 447.507812 L 442.0625 389.078125 L 415.695312 414.050781 L 466.433594 464.785156 C 477.320312 461.191406 487.90625 455.398438 498.09375 447.507812 Z M 457.441406 474.175781 L 406.308594 423.039062 L 381.535156 446.40625 L 441.863281 503.535156 C 448.855469 493.949219 454.050781 484.164062 457.441406 474.175781 Z M 211.746094 148.875 L 368.75 312.671875 L 342.085938 340.4375 L 190.273438 188.621094 C 188.972656 187.328125 187.375 186.726562 185.679688 186.726562 C 183.976562 186.726562 182.382812 187.328125 181.082031 188.621094 C 178.585938 191.121094 178.585938 195.316406 181.082031 197.816406 L 333.097656 349.828125 L 307.628906 376.390625 L 141.734375 219.1875 L 116.164062 123.804688 L 211.746094 148.875 " fill-opacity="1" fill-rule="nonzero"/></g></svg>