<svg xmlns="http://www.w3.org/2000/svg" xmlns:xlink="http://www.w3.org/1999/xlink" width="1000" zoomAndPan="magnify" viewBox="0 0 750 749.999995" height="1000" preserveAspectRatio="xMidYMid meet" version="1.0"><defs><g/><clipPath id="ef1bfa9ebd"><path d="M 235.417969 142.226562 L 525 142.226562 L 525 431.632812 L 235.417969 431.632812 Z M 235.417969 142.226562 " clip-rule="nonzero"/></clipPath><clipPath id="bdf43358cc"><path d="M 225 142.113281 L 515 142.113281 L 515 432 L 225 432 Z M 225 142.113281 " clip-rule="nonzero"/></clipPath></defs><g clip-path="url(#ef1bfa9ebd)"><path fill="#12e1b9" d="M 240.628906 401.304688 C 233.683594 408.25 233.683594 419.480469 240.628906 426.425781 C 247.574219 433.371094 258.800781 433.371094 265.746094 426.425781 C 272.695312 419.480469 272.695312 408.25 265.746094 401.304688 C 258.800781 394.417969 247.515625 394.417969 240.628906 401.304688 Z M 348.402344 376.9375 C 347.535156 378.902344 344.988281 379.425781 343.425781 377.921875 C 333.007812 367.90625 325.597656 357.082031 321.953125 345.101562 C 310.027344 341.398438 299.203125 333.988281 289.25 323.511719 C 287.742188 321.949219 288.265625 319.402344 290.230469 318.535156 L 301.75 313.613281 L 277.671875 312.976562 C 275.183594 312.917969 272.984375 314.65625 272.460938 317.085938 L 270.378906 326.867188 C 269.972656 328.894531 270.550781 330.980469 272 332.425781 L 290 350.425781 C 292.027344 352.453125 292.082031 355.75 290.117188 357.835938 L 258.6875 391.753906 C 262.5625 392.738281 266.210938 394.707031 269.21875 397.714844 C 272.230469 400.726562 274.199219 404.371094 275.183594 408.25 L 309.101562 376.820312 C 311.242188 374.851562 314.484375 374.910156 316.511719 376.9375 L 334.164062 394.589844 C 335.554688 395.980469 337.519531 396.617188 339.488281 396.269531 L 349.5625 394.53125 C 352.109375 394.125 353.960938 391.871094 353.902344 389.320312 L 353.382812 365.417969 Z M 525 142.226562 L 510.183594 197.503906 L 336.304688 362.292969 C 332.253906 356.738281 329.246094 351.0625 327.277344 345.277344 L 487.433594 185.117188 C 488.882812 183.671875 488.882812 181.238281 487.433594 179.789062 C 486.683594 179.039062 485.757812 178.691406 484.773438 178.691406 C 483.789062 178.691406 482.863281 179.039062 482.109375 179.789062 L 322.011719 339.832031 C 315.757812 337.691406 309.621094 334.335938 303.660156 329.820312 L 469.609375 156.757812 L 525 142.226562 " fill-opacity="1" fill-rule="nonzero"/></g><g clip-path="url(#bdf43358cc)"><path fill="#12e1b9" d="M 509.429688 401.304688 C 502.484375 394.359375 491.253906 394.359375 484.308594 401.304688 C 477.363281 408.25 477.363281 419.480469 484.308594 426.425781 C 491.253906 433.371094 502.484375 433.371094 509.429688 426.425781 C 516.375 419.480469 516.375 408.25 509.429688 401.304688 Z M 491.253906 391.8125 L 459.824219 357.894531 C 457.859375 355.75 457.914062 352.511719 459.941406 350.484375 L 477.941406 332.484375 C 479.390625 331.035156 480.027344 328.953125 479.5625 326.925781 L 477.480469 317.144531 C 476.957031 314.714844 474.757812 312.976562 472.269531 313.035156 L 448.191406 313.671875 L 459.710938 318.589844 C 461.675781 319.460938 462.199219 322.007812 460.691406 323.570312 C 450.738281 334.046875 439.914062 341.511719 427.988281 345.160156 C 424.34375 357.082031 416.9375 367.964844 406.515625 377.980469 C 404.953125 379.480469 402.40625 378.960938 401.539062 376.996094 L 396.558594 365.535156 L 396.039062 389.441406 C 395.980469 391.984375 397.835938 394.242188 400.382812 394.648438 L 410.453125 396.386719 C 412.363281 396.730469 414.386719 396.097656 415.777344 394.707031 L 433.433594 377.050781 C 435.457031 375.027344 438.757812 374.96875 440.839844 376.9375 L 474.757812 408.367188 C 475.742188 404.488281 477.710938 400.84375 480.722656 397.832031 C 483.730469 394.765625 487.433594 392.738281 491.253906 391.8125 Z M 446.339844 329.820312 L 413.867188 295.960938 L 398.585938 310.429688 L 427.988281 339.832031 C 434.300781 337.75 440.433594 334.394531 446.339844 329.820312 Z M 422.78125 345.277344 L 393.144531 315.640625 L 378.789062 329.183594 L 413.753906 362.292969 C 417.804688 356.738281 420.8125 351.0625 422.78125 345.277344 Z M 280.390625 156.757812 L 371.382812 251.683594 L 355.925781 267.769531 L 267.949219 179.789062 C 267.195312 179.039062 266.269531 178.691406 265.285156 178.691406 C 264.300781 178.691406 263.375 179.039062 262.621094 179.789062 C 261.175781 181.238281 261.175781 183.671875 262.621094 185.117188 L 350.71875 273.214844 L 335.957031 288.609375 L 239.820312 197.503906 L 225 142.226562 L 280.390625 156.757812 " fill-opacity="1" fill-rule="nonzero"/></g><g fill="#f3f4f4" fill-opacity="1"><g transform="translate(315.024292, 530.357394)"><g><path d="M 2.984375 -41.046875 L 17.65625 -41.046875 C 21.601562 -41.046875 24.820312 -39.988281 27.3125 -37.875 C 29.800781 -35.769531 31.046875 -32.765625 31.046875 -28.859375 C 31.046875 -25.835938 30.289062 -23.304688 28.78125 -21.265625 C 27.269531 -19.222656 25.222656 -17.789062 22.640625 -16.96875 L 36.765625 0 L 24.875 0 L 12.34375 -16.21875 L 12.34375 0 L 2.984375 0 Z M 12.34375 -22.828125 L 13.4375 -22.828125 C 14.289062 -22.828125 15.015625 -22.84375 15.609375 -22.875 C 16.210938 -22.914062 16.894531 -23.035156 17.65625 -23.234375 C 18.425781 -23.429688 19.039062 -23.710938 19.5 -24.078125 C 19.96875 -24.441406 20.363281 -24.972656 20.6875 -25.671875 C 21.019531 -26.367188 21.1875 -27.210938 21.1875 -28.203125 C 21.1875 -29.203125 21.019531 -30.050781 20.6875 -30.75 C 20.363281 -31.445312 19.96875 -31.976562 19.5 -32.34375 C 19.039062 -32.707031 18.425781 -32.988281 17.65625 -33.1875 C 16.894531 -33.382812 16.210938 -33.5 15.609375 -33.53125 C 15.015625 -33.5625 14.289062 -33.578125 13.4375 -33.578125 L 12.34375 -33.578125 Z M 12.34375 -22.828125 "/></g></g></g><g fill="#f3f4f4" fill-opacity="1"><g transform="translate(355.617457, 530.357394)"><g><path d="M 2.984375 -41.046875 L 17.953125 -41.046875 C 22.140625 -41.046875 25.523438 -39.96875 28.109375 -37.8125 C 30.691406 -35.65625 31.984375 -32.519531 31.984375 -28.40625 C 31.984375 -24.289062 30.671875 -21.0625 28.046875 -18.71875 C 25.429688 -16.382812 22.066406 -15.21875 17.953125 -15.21875 L 12.34375 -15.21875 L 12.34375 0 L 2.984375 0 Z M 12.34375 -22.6875 L 14.96875 -22.6875 C 17.0625 -22.6875 18.78125 -23.109375 20.125 -23.953125 C 21.46875 -24.796875 22.140625 -26.179688 22.140625 -28.109375 C 22.140625 -30.066406 21.46875 -31.46875 20.125 -32.3125 C 18.78125 -33.15625 17.0625 -33.578125 14.96875 -33.578125 L 12.34375 -33.578125 Z M 12.34375 -22.6875 "/></g></g></g><g fill="#f3f4f4" fill-opacity="1"><g transform="translate(393.723317, 530.357394)"><g><path d="M 40.09375 -22.984375 L 40.09375 -14.078125 C 39.03125 -9.203125 36.707031 -5.507812 33.125 -3 C 29.550781 -0.5 25.554688 0.75 21.140625 0.75 C 15.597656 0.75 10.878906 -1.320312 6.984375 -5.46875 C 3.085938 -9.613281 1.140625 -14.625 1.140625 -20.5 C 1.140625 -26.46875 3.046875 -31.507812 6.859375 -35.625 C 10.679688 -39.738281 15.441406 -41.796875 21.140625 -41.796875 C 27.804688 -41.796875 33.082031 -39.457031 36.96875 -34.78125 L 30.84375 -28.0625 C 28.65625 -31.570312 25.601562 -33.328125 21.6875 -33.328125 C 18.800781 -33.328125 16.335938 -32.070312 14.296875 -29.5625 C 12.265625 -27.0625 11.25 -24.039062 11.25 -20.5 C 11.25 -17.007812 12.265625 -14.03125 14.296875 -11.5625 C 16.335938 -9.09375 18.800781 -7.859375 21.6875 -7.859375 C 24.070312 -7.859375 26.148438 -8.578125 27.921875 -10.015625 C 29.703125 -11.460938 30.59375 -13.378906 30.59375 -15.765625 L 21.140625 -15.765625 L 21.140625 -22.984375 Z M 40.09375 -22.984375 "/></g></g></g><g fill="#f3f4f4" fill-opacity="1"><g transform="translate(148.946171, 591.857391)"><g><path d="M 12.34375 -16.46875 L 12.34375 0 L 2.984375 0 L 2.984375 -41.046875 L 12.34375 -41.046875 L 12.34375 -24.671875 L 25.578125 -24.671875 L 25.578125 -41.046875 L 34.921875 -41.046875 L 34.921875 0 L 25.578125 0 L 25.578125 -16.46875 Z M 12.34375 -16.46875 "/></g></g></g><g fill="#f3f4f4" fill-opacity="1"><g transform="translate(191.82765, 591.857391)"><g><path d="M 23.828125 -41.046875 L 40.390625 0 L 30.34375 0 L 27.3125 -8.203125 L 11.6875 -8.203125 L 8.65625 0 L -1.390625 0 L 15.171875 -41.046875 Z M 24.125 -16.421875 L 19.546875 -28.359375 L 19.453125 -28.359375 L 14.875 -16.421875 Z M 24.125 -16.421875 "/></g></g></g><g fill="#f3f4f4" fill-opacity="1"><g transform="translate(235.803539, 591.857391)"><g><path d="M 12.34375 -25.46875 L 12.34375 0 L 2.984375 0 L 2.984375 -41.046875 L 12.34375 -41.046875 L 28.65625 -15.578125 L 28.75 -15.578125 L 28.75 -41.046875 L 38.109375 -41.046875 L 38.109375 0 L 28.75 0 L 12.4375 -25.46875 Z M 12.34375 -25.46875 "/></g></g></g><g fill="#f3f4f4" fill-opacity="1"><g transform="translate(281.868764, 591.857391)"><g><path d="M 2.984375 -41.046875 L 14.875 -41.046875 C 20.582031 -41.046875 25.457031 -39.097656 29.5 -35.203125 C 33.550781 -31.304688 35.578125 -26.421875 35.578125 -20.546875 C 35.578125 -14.640625 33.5625 -9.738281 29.53125 -5.84375 C 25.5 -1.945312 20.613281 0 14.875 0 L 2.984375 0 Z M 12.34375 -8.359375 L 13.78125 -8.359375 C 17.195312 -8.359375 19.988281 -9.507812 22.15625 -11.8125 C 24.332031 -14.113281 25.4375 -17.007812 25.46875 -20.5 C 25.46875 -23.976562 24.378906 -26.878906 22.203125 -29.203125 C 20.035156 -31.523438 17.226562 -32.6875 13.78125 -32.6875 L 12.34375 -32.6875 Z M 12.34375 -8.359375 "/></g></g></g><g fill="#f3f4f4" fill-opacity="1"><g transform="translate(323.556338, 591.857391)"><g><path d="M -1.5 -41.046875 L 9.75 -41.046875 L 18.3125 -27.90625 L 26.859375 -41.046875 L 38.109375 -41.046875 L 22.984375 -18.40625 L 22.984375 0 L 13.625 0 L 13.625 -18.40625 Z M -1.5 -41.046875 "/></g></g></g><g fill="#f3f4f4" fill-opacity="1"><g transform="translate(365.144417, 591.857391)"><g/></g></g><g fill="#f3f4f4" fill-opacity="1"><g transform="translate(383.700073, 591.857391)"><g><path d="M 12.34375 -16.46875 L 12.34375 0 L 2.984375 0 L 2.984375 -41.046875 L 12.34375 -41.046875 L 12.34375 -24.671875 L 25.578125 -24.671875 L 25.578125 -41.046875 L 34.921875 -41.046875 L 34.921875 0 L 25.578125 0 L 25.578125 -16.46875 Z M 12.34375 -16.46875 "/></g></g></g><g fill="#f3f4f4" fill-opacity="1"><g transform="translate(426.581563, 591.857391)"><g><path d="M 26.46875 -41.046875 L 26.46875 -32.828125 L 12.34375 -32.828125 L 12.34375 -24.671875 L 25.875 -24.671875 L 25.875 -16.46875 L 12.34375 -16.46875 L 12.34375 -8.203125 L 26.46875 -8.203125 L 26.46875 0 L 2.984375 0 L 2.984375 -41.046875 Z M 26.46875 -41.046875 "/></g></g></g><g fill="#f3f4f4" fill-opacity="1"><g transform="translate(460.409267, 591.857391)"><g><path d="M 12.34375 -41.046875 L 12.34375 -8.203125 L 26.46875 -8.203125 L 26.46875 0 L 2.984375 0 L 2.984375 -41.046875 Z M 12.34375 -41.046875 "/></g></g></g><g fill="#f3f4f4" fill-opacity="1"><g transform="translate(493.49077, 591.857391)"><g><path d="M 2.984375 -41.046875 L 17.953125 -41.046875 C 22.140625 -41.046875 25.523438 -39.96875 28.109375 -37.8125 C 30.691406 -35.65625 31.984375 -32.519531 31.984375 -28.40625 C 31.984375 -24.289062 30.671875 -21.0625 28.046875 -18.71875 C 25.429688 -16.382812 22.066406 -15.21875 17.953125 -15.21875 L 12.34375 -15.21875 L 12.34375 0 L 2.984375 0 Z M 12.34375 -22.6875 L 14.96875 -22.6875 C 17.0625 -22.6875 18.78125 -23.109375 20.125 -23.953125 C 21.46875 -24.796875 22.140625 -26.179688 22.140625 -28.109375 C 22.140625 -30.066406 21.46875 -31.46875 20.125 -32.3125 C 18.78125 -33.15625 17.0625 -33.578125 14.96875 -33.578125 L 12.34375 -33.578125 Z M 12.34375 -22.6875 "/></g></g></g><g fill="#f3f4f4" fill-opacity="1"><g transform="translate(531.596618, 591.857391)"><g><path d="M 26.46875 -41.046875 L 26.46875 -32.828125 L 12.34375 -32.828125 L 12.34375 -24.671875 L 25.875 -24.671875 L 25.875 -16.46875 L 12.34375 -16.46875 L 12.34375 -8.203125 L 26.46875 -8.203125 L 26.46875 0 L 2.984375 0 L 2.984375 -41.046875 Z M 26.46875 -41.046875 "/></g></g></g><g fill="#f3f4f4" fill-opacity="1"><g transform="translate(565.424299, 591.857391)"><g><path d="M 2.984375 -41.046875 L 17.65625 -41.046875 C 21.601562 -41.046875 24.820312 -39.988281 27.3125 -37.875 C 29.800781 -35.769531 31.046875 -32.765625 31.046875 -28.859375 C 31.046875 -25.835938 30.289062 -23.304688 28.78125 -21.265625 C 27.269531 -19.222656 25.222656 -17.789062 22.640625 -16.96875 L 36.765625 0 L 24.875 0 L 12.34375 -16.21875 L 12.34375 0 L 2.984375 0 Z M 12.34375 -22.828125 L 13.4375 -22.828125 C 14.289062 -22.828125 15.015625 -22.84375 15.609375 -22.875 C 16.210938 -22.914062 16.894531 -23.035156 17.65625 -23.234375 C 18.425781 -23.429688 19.039062 -23.710938 19.5 -24.078125 C 19.96875 -24.441406 20.363281 -24.972656 20.6875 -25.671875 C 21.019531 -26.367188 21.1875 -27.210938 21.1875 -28.203125 C 21.1875 -29.203125 21.019531 -30.050781 20.6875 -30.75 C 20.363281 -31.445312 19.96875 -31.976562 19.5 -32.34375 C 19.039062 -32.707031 18.425781 -32.988281 17.65625 -33.1875 C 16.894531 -33.382812 16.210938 -33.5 15.609375 -33.53125 C 15.015625 -33.5625 14.289062 -33.578125 13.4375 -33.578125 L 12.34375 -33.578125 Z M 12.34375 -22.828125 "/></g></g></g></svg>