<svg xmlns="http://www.w3.org/2000/svg" xmlns:xlink="http://www.w3.org/1999/xlink" width="1000" zoomAndPan="magnify" viewBox="0 0 750 749.999995" height="1000" preserveAspectRatio="xMidYMid meet" version="1.0"><defs><clipPath id="f2ad724054"><path d="M 136.167969 125.773438 L 635.691406 125.773438 L 635.691406 625.148438 L 136.167969 625.148438 Z M 136.167969 125.773438 " clip-rule="nonzero"/></clipPath><clipPath id="7dfd65ada1"><path d="M 118.191406 125.574219 L 618 125.574219 L 618 626 L 118.191406 626 Z M 118.191406 125.574219 " clip-rule="nonzero"/></clipPath></defs><g clip-path="url(#f2ad724054)"><path fill="#ed1e46" d="M 145.15625 572.816406 C 133.171875 584.800781 133.171875 604.175781 145.15625 616.160156 C 157.140625 628.144531 176.515625 628.144531 188.5 616.160156 C 200.484375 604.175781 200.484375 584.800781 188.5 572.816406 C 176.515625 560.925781 157.039062 560.925781 145.15625 572.816406 Z M 331.125 530.765625 C 329.625 534.160156 325.230469 535.0625 322.535156 532.464844 C 304.558594 515.183594 291.773438 496.507812 285.480469 475.835938 C 264.90625 469.445312 246.230469 456.660156 229.050781 438.582031 C 226.453125 435.882812 227.355469 431.492188 230.75 429.992188 L 250.625 421.503906 L 209.078125 420.402344 C 204.78125 420.300781 200.984375 423.300781 200.089844 427.496094 L 196.492188 444.375 C 195.792969 447.871094 196.792969 451.464844 199.289062 453.964844 L 230.351562 485.023438 C 233.847656 488.519531 233.945312 494.210938 230.550781 497.808594 L 176.316406 556.335938 C 183.007812 558.03125 189.300781 561.425781 194.492188 566.621094 C 199.691406 571.816406 203.085938 578.105469 204.78125 584.800781 L 263.308594 530.566406 C 267.003906 527.167969 272.597656 527.269531 276.09375 530.765625 L 306.554688 561.226562 C 308.953125 563.625 312.347656 564.722656 315.742188 564.121094 L 333.121094 561.125 C 337.515625 560.429688 340.710938 556.535156 340.613281 552.136719 L 339.714844 510.890625 Z M 635.84375 125.773438 L 610.273438 221.152344 L 310.25 505.496094 C 303.257812 495.910156 298.066406 486.121094 294.667969 476.136719 L 571.023438 199.78125 C 573.519531 197.285156 573.519531 193.085938 571.023438 190.589844 C 569.726562 189.292969 568.128906 188.695312 566.429688 188.695312 C 564.734375 188.695312 563.132812 189.292969 561.835938 190.589844 L 285.582031 466.746094 C 274.796875 463.050781 264.207031 457.257812 253.917969 449.46875 L 540.265625 150.84375 L 635.84375 125.773438 " fill-opacity="1" fill-rule="nonzero"/></g><g clip-path="url(#7dfd65ada1)"><path fill="#ed1e46" d="M 608.976562 572.816406 C 596.988281 560.828125 577.617188 560.828125 565.628906 572.816406 C 553.644531 584.800781 553.644531 604.175781 565.628906 616.160156 C 577.617188 628.144531 596.988281 628.144531 608.976562 616.160156 C 620.960938 604.175781 620.960938 584.800781 608.976562 572.816406 Z M 577.617188 556.433594 L 523.382812 497.910156 C 519.988281 494.210938 520.085938 488.621094 523.582031 485.125 L 554.644531 454.0625 C 557.140625 451.5625 558.242188 447.972656 557.441406 444.476562 L 553.84375 427.59375 C 552.945312 423.398438 549.152344 420.402344 544.855469 420.503906 L 503.308594 421.601562 L 523.183594 430.089844 C 526.578125 431.589844 527.480469 435.984375 524.878906 438.683594 C 507.703125 456.757812 489.027344 469.644531 468.453125 475.9375 C 462.160156 496.507812 449.378906 515.285156 431.398438 532.566406 C 428.699219 535.160156 424.308594 534.261719 422.808594 530.867188 L 414.21875 511.089844 L 413.320312 552.339844 C 413.21875 556.734375 416.417969 560.628906 420.8125 561.328125 L 438.1875 564.324219 C 441.484375 564.921875 444.980469 563.828125 447.378906 561.425781 L 477.84375 530.964844 C 481.335938 527.46875 487.03125 527.371094 490.621094 530.765625 L 549.152344 585 C 550.847656 578.308594 554.246094 572.015625 559.4375 566.824219 C 564.632812 561.527344 571.023438 558.03125 577.617188 556.433594 Z M 500.109375 449.46875 L 444.082031 391.042969 L 417.714844 416.011719 L 468.453125 466.746094 C 479.339844 463.152344 489.925781 457.359375 500.109375 449.46875 Z M 459.460938 476.136719 L 408.328125 425 L 383.558594 448.367188 L 443.882812 505.496094 C 450.875 495.910156 456.070312 486.121094 459.460938 476.136719 Z M 213.769531 150.84375 L 370.773438 314.636719 L 344.105469 342.398438 L 192.296875 190.589844 C 190.996094 189.292969 189.402344 188.695312 187.703125 188.695312 C 186.003906 188.695312 184.410156 189.292969 183.109375 190.589844 C 180.613281 193.085938 180.613281 197.285156 183.109375 199.78125 L 335.117188 351.789062 L 309.648438 378.355469 L 143.761719 221.152344 L 118.191406 125.773438 L 213.769531 150.84375 " fill-opacity="1" fill-rule="nonzero"/></g></svg>