<svg xmlns="http://www.w3.org/2000/svg" xmlns:xlink="http://www.w3.org/1999/xlink" width="500" zoomAndPan="magnify" viewBox="0 0 375 374.999991" height="500" preserveAspectRatio="xMidYMid meet" version="1.0"><defs><clipPath id="d0b9668a79"><path d="M 0 55 L 375 55 L 375 321.78125 L 0 321.78125 Z M 0 55 " clip-rule="nonzero"/></clipPath></defs><g clip-path="url(#d0b9668a79)"><path fill="#12e1b9" d="M 288.140625 119.1875 L 314.011719 93.316406 C 318.207031 89.125 320.511719 83.554688 320.511719 77.613281 C 320.511719 71.671875 318.207031 66.109375 314.011719 61.914062 C 305.347656 53.261719 291.277344 53.261719 282.613281 61.914062 L 244.804688 99.722656 C 243.660156 99.34375 242.539062 98.984375 241.484375 98.671875 C 239.480469 98.003906 237.46875 97.402344 235.523438 96.894531 C 227.613281 94.679688 220.246094 93.097656 212.886719 92.039062 C 211.738281 91.851562 210.65625 91.664062 209.617188 91.550781 C 202.179688 90.570312 194.710938 90.070312 187.4375 90.070312 C 180.84375 90.070312 174.183594 90.5 167.484375 91.304688 C 148.542969 93.582031 129.222656 99.039062 109.816406 107.652344 C 46.953125 135.265625 3.933594 185.503906 2.132812 187.625 C 0.109375 190.019531 0.171875 193.53125 2.277344 195.839844 C 3.699219 197.40625 36.140625 232.660156 85.570312 258.964844 L 60.996094 283.539062 C 56.796875 287.730469 54.488281 293.296875 54.488281 299.238281 C 54.488281 305.179688 56.796875 310.742188 60.996094 314.941406 C 65.316406 319.261719 71.003906 321.429688 76.691406 321.429688 C 82.375 321.429688 88.0625 319.261719 92.390625 314.941406 L 129.765625 277.566406 C 131.019531 277.953125 132.261719 278.375 133.515625 278.730469 C 135.496094 279.308594 137.496094 279.890625 139.929688 280.519531 C 140.8125 280.753906 141.65625 280.980469 142.078125 281.046875 C 143.5 281.445312 144.976562 281.789062 146.667969 282.167969 L 147.859375 282.417969 C 148.488281 282.546875 149.121094 282.691406 149.539062 282.761719 C 154.210938 283.789062 159.082031 284.636719 163.996094 285.277344 C 166.363281 285.59375 168.789062 285.851562 171.429688 286.117188 C 173.425781 286.292969 175.421875 286.417969 177.945312 286.566406 C 181.066406 286.757812 184.25 286.828125 187.429688 286.828125 C 190.613281 286.828125 193.820312 286.742188 197.035156 286.566406 C 209.890625 285.863281 222.9375 283.757812 236.085938 280.269531 C 245.949219 277.652344 255.878906 274.257812 265.824219 270.09375 C 265.832031 270.09375 265.835938 270.082031 265.84375 270.082031 C 328.222656 244.246094 370.921875 197.820312 372.710938 195.855469 C 374.820312 193.542969 374.882812 190.023438 372.851562 187.640625 C 371.414062 185.9375 338.417969 147.4375 288.125 119.199219 Z M 208.097656 103.914062 C 209.019531 104.027344 209.902344 104.175781 211.222656 104.394531 C 217.941406 105.347656 224.789062 106.832031 232.285156 108.929688 C 233.113281 109.140625 234 109.445312 234.847656 109.695312 L 204.128906 140.410156 C 198.824219 138.570312 193.261719 137.597656 187.507812 137.597656 C 159.480469 137.597656 136.683594 160.390625 136.683594 188.417969 C 136.683594 194.167969 137.65625 199.734375 139.5 205.039062 L 108.839844 235.703125 C 104.136719 219.570312 101.621094 203.695312 101.621094 188.410156 C 101.621094 165.453125 106.808594 141.824219 117.035156 118.148438 C 118.289062 117.605469 119.53125 117.09375 120.785156 116.582031 C 122.210938 115.996094 123.636719 115.398438 125.0625 114.851562 C 126.664062 114.234375 128.257812 113.679688 129.851562 113.109375 C 131.285156 112.597656 132.722656 112.0625 134.15625 111.589844 C 135.746094 111.058594 137.328125 110.597656 138.910156 110.117188 C 140.335938 109.683594 141.765625 109.226562 143.1875 108.828125 C 144.789062 108.382812 146.382812 108.007812 147.984375 107.609375 C 149.378906 107.261719 150.777344 106.886719 152.167969 106.570312 C 153.804688 106.199219 155.433594 105.910156 157.0625 105.589844 C 158.410156 105.328125 159.753906 105.035156 161.09375 104.804688 C 162.816406 104.511719 164.53125 104.300781 166.25 104.066406 C 167.484375 103.898438 168.722656 103.683594 169.949219 103.546875 C 171.886719 103.328125 173.8125 103.191406 175.734375 103.042969 C 176.738281 102.96875 177.742188 102.84375 178.738281 102.789062 C 181.65625 102.621094 184.558594 102.53125 187.449219 102.53125 C 194.175781 102.53125 201.089844 102.992188 208.101562 103.921875 Z M 149.714844 194.828125 C 149.367188 192.726562 149.136719 190.597656 149.136719 188.417969 C 149.136719 167.265625 166.347656 150.054688 187.5 150.054688 C 189.679688 150.054688 191.808594 150.277344 193.910156 150.625 L 149.707031 194.828125 Z M 15.40625 191.5 C 25.929688 180.152344 57.761719 148.203125 100.625 125.929688 C 93.058594 146.9375 89.164062 167.890625 89.164062 188.417969 C 89.164062 206.941406 92.507812 226.191406 98.875 245.671875 L 94.8125 249.734375 C 55.128906 229.285156 25.632812 201.726562 15.414062 191.5 Z M 83.589844 306.128906 C 79.792969 309.925781 73.601562 309.914062 69.808594 306.128906 C 67.964844 304.285156 66.949219 301.84375 66.949219 299.238281 C 66.949219 296.636719 67.964844 294.1875 69.808594 292.351562 L 100.488281 261.671875 C 100.53125 261.621094 100.582031 261.578125 100.632812 261.527344 L 110.054688 252.105469 C 110.085938 252.074219 110.117188 252.042969 110.148438 252.011719 L 151.253906 210.90625 C 151.296875 210.863281 151.339844 210.828125 151.382812 210.777344 L 209.859375 152.300781 C 209.914062 152.25 209.957031 152.203125 210.007812 152.152344 L 250.996094 111.164062 C 251.039062 111.121094 251.082031 111.082031 251.125 111.035156 L 291.425781 70.730469 C 293.328125 68.832031 295.824219 67.886719 298.316406 67.886719 C 300.808594 67.886719 303.3125 68.832031 305.203125 70.730469 C 307.046875 72.574219 308.054688 75.015625 308.054688 77.621094 C 308.054688 80.222656 307.046875 82.671875 305.203125 84.507812 L 83.585938 306.128906 Z M 225.871094 188.417969 C 225.871094 209.570312 208.65625 226.78125 187.507812 226.78125 C 185.34375 226.78125 183.222656 226.558594 181.128906 226.203125 L 225.292969 182.039062 C 225.640625 184.132812 225.871094 186.257812 225.871094 188.417969 Z M 178.171875 274.089844 C 176.296875 273.980469 174.421875 273.867188 172.550781 273.703125 C 172.476562 273.703125 172.390625 273.691406 172.289062 273.6875 C 170.066406 273.457031 167.839844 273.21875 165.652344 272.925781 C 161.0625 272.324219 156.546875 271.539062 151.988281 270.542969 L 149.214844 269.96875 C 147.957031 269.683594 146.699219 269.402344 145.023438 268.945312 C 144.394531 268.816406 143.808594 268.652344 142.609375 268.335938 C 141.679688 268.09375 140.726562 267.8125 139.792969 267.550781 L 170.925781 236.417969 C 176.238281 238.265625 181.796875 239.246094 187.511719 239.246094 C 215.539062 239.246094 238.332031 216.449219 238.332031 188.425781 C 238.332031 182.695312 237.363281 177.140625 235.511719 171.832031 L 266.566406 140.78125 C 271.054688 156.980469 273.460938 172.972656 273.460938 188.417969 C 273.460938 211.449219 268.488281 235.351562 258.6875 259.511719 C 257.421875 260.027344 256.152344 260.519531 254.886719 261.007812 C 253.484375 261.546875 252.085938 262.101562 250.683594 262.605469 C 248.972656 263.230469 247.257812 263.796875 245.546875 264.367188 C 244.207031 264.816406 242.859375 265.285156 241.523438 265.707031 C 239.773438 266.257812 238.027344 266.742188 236.277344 267.242188 C 234.976562 267.609375 233.675781 268.007812 232.375 268.34375 C 230.597656 268.808594 228.828125 269.207031 227.0625 269.621094 C 225.796875 269.910156 224.53125 270.234375 223.269531 270.503906 C 221.460938 270.882812 219.660156 271.195312 217.863281 271.519531 C 216.648438 271.738281 215.425781 271.992188 214.210938 272.183594 C 212.335938 272.484375 210.476562 272.707031 208.613281 272.945312 C 207.484375 273.089844 206.347656 273.269531 205.21875 273.394531 C 203.1875 273.613281 201.171875 273.75 199.152344 273.890625 C 198.199219 273.960938 197.242188 274.066406 196.292969 274.121094 C 193.335938 274.285156 190.382812 274.363281 187.449219 274.363281 C 184.515625 274.363281 181.609375 274.308594 178.175781 274.089844 Z M 274.566406 252.449219 C 282.054688 230.773438 285.902344 209.292969 285.902344 188.417969 C 285.902344 169.703125 282.691406 150.308594 276.59375 130.738281 L 278.976562 128.355469 C 319.429688 150.402344 349.429688 180.550781 359.59375 191.5 C 348.90625 202.1875 317.136719 231.785156 274.566406 252.449219 Z M 274.566406 252.449219 " fill-opacity="1" fill-rule="nonzero"/></g></svg>