<svg xmlns="http://www.w3.org/2000/svg" xmlns:xlink="http://www.w3.org/1999/xlink" width="500" zoomAndPan="magnify" viewBox="0 0 375 374.999991" height="500" preserveAspectRatio="xMidYMid meet" version="1.0"><path fill="#ff3131" d="M 375 204.207031 C 374.71875 207.117188 374.371094 210.019531 373.957031 212.914062 C 373.539062 215.808594 373.058594 218.691406 372.503906 221.5625 C 371.953125 224.4375 371.335938 227.292969 370.648438 230.136719 C 369.960938 232.976562 369.210938 235.804688 368.390625 238.609375 C 367.570312 241.417969 366.6875 244.203125 365.734375 246.96875 C 364.785156 249.734375 363.769531 252.476562 362.691406 255.195312 C 361.613281 257.914062 360.46875 260.605469 359.265625 263.269531 C 358.058594 265.933594 356.789062 268.566406 355.460938 271.171875 C 354.128906 273.773438 352.742188 276.347656 351.289062 278.886719 C 349.839844 281.425781 348.328125 283.929688 346.761719 286.398438 C 345.191406 288.863281 343.566406 291.292969 341.882812 293.6875 C 340.199219 296.078125 338.460938 298.429688 336.667969 300.738281 C 334.875 303.046875 333.027344 305.3125 331.128906 307.535156 C 329.226562 309.757812 327.277344 311.9375 325.273438 314.066406 C 323.269531 316.199219 321.21875 318.28125 319.117188 320.316406 C 317.015625 322.347656 314.871094 324.332031 312.675781 326.265625 C 310.480469 328.199219 308.242188 330.082031 305.960938 331.90625 C 303.679688 333.734375 301.355469 335.507812 298.988281 337.226562 C 296.621094 338.945312 294.21875 340.609375 291.773438 342.214844 C 289.328125 343.820312 286.847656 345.367188 284.332031 346.855469 C 281.8125 348.34375 279.261719 349.773438 276.679688 351.140625 C 274.09375 352.511719 271.480469 353.816406 268.835938 355.0625 C 266.1875 356.308594 263.515625 357.492188 260.8125 358.613281 C 258.113281 359.730469 255.386719 360.789062 252.632812 361.777344 C 249.882812 362.769531 247.109375 363.695312 244.316406 364.558594 C 241.519531 365.417969 238.707031 366.214844 235.875 366.941406 C 233.042969 367.671875 230.195312 368.332031 227.332031 368.925781 C 224.46875 369.523438 221.59375 370.050781 218.707031 370.507812 C 215.816406 370.96875 212.921875 371.359375 210.015625 371.683594 C 207.109375 372.003906 204.195312 372.257812 201.277344 372.445312 C 198.359375 372.632812 195.4375 372.75 192.515625 372.796875 C 189.589844 372.847656 186.667969 372.824219 183.742188 372.738281 C 180.820312 372.648438 177.902344 372.488281 174.984375 372.261719 C 172.070312 372.039062 169.160156 371.742188 166.261719 371.378906 C 163.359375 371.015625 160.46875 370.585938 157.585938 370.085938 C 154.703125 369.585938 151.835938 369.019531 148.980469 368.382812 C 146.125 367.75 143.289062 367.050781 140.46875 366.28125 C 137.644531 365.511719 134.84375 364.679688 132.0625 363.78125 C 129.277344 362.878906 126.519531 361.914062 123.78125 360.886719 C 121.042969 359.855469 118.332031 358.761719 115.648438 357.605469 C 112.960938 356.449219 110.304688 355.230469 107.675781 353.945312 C 105.046875 352.664062 102.453125 351.320312 99.886719 349.917969 C 97.320312 348.511719 94.789062 347.050781 92.292969 345.527344 C 89.796875 344.003906 87.339844 342.421875 84.917969 340.78125 C 82.496094 339.140625 80.113281 337.445312 77.773438 335.695312 C 75.429688 333.945312 73.132812 332.140625 70.875 330.28125 C 68.617188 328.421875 66.40625 326.507812 64.238281 324.546875 C 62.070312 322.582031 59.953125 320.570312 57.878906 318.503906 C 55.804688 316.441406 53.785156 314.332031 51.8125 312.171875 C 49.839844 310.015625 47.917969 307.808594 46.046875 305.5625 C 44.179688 303.3125 42.363281 301.019531 40.601562 298.6875 C 38.839844 296.351562 37.132812 293.976562 35.484375 291.5625 C 33.835938 289.148438 32.242188 286.695312 30.707031 284.207031 C 29.175781 281.71875 27.699219 279.195312 26.285156 276.636719 C 24.867188 274.074219 23.515625 271.484375 22.21875 268.863281 C 20.925781 266.238281 19.695312 263.589844 18.527344 260.90625 C 17.359375 258.226562 16.253906 255.519531 15.210938 252.789062 C 14.167969 250.054688 13.191406 247.300781 12.28125 244.523438 C 11.367188 241.742188 10.523438 238.945312 9.742188 236.125 C 8.960938 233.308594 8.25 230.472656 7.601562 227.621094 C 6.957031 224.769531 6.375 221.902344 5.863281 219.023438 C 5.351562 216.144531 4.910156 213.253906 4.53125 210.355469 C 4.15625 207.457031 3.847656 204.546875 3.609375 201.632812 C 3.371094 198.71875 3.199219 195.800781 3.097656 192.878906 C 2.996094 189.957031 2.964844 187.03125 3 184.109375 C 3.035156 181.183594 3.140625 178.261719 3.3125 175.34375 C 3.488281 172.425781 3.730469 169.511719 4.039062 166.601562 C 4.347656 163.695312 4.726562 160.796875 5.175781 157.90625 C 5.621094 155.015625 6.136719 152.136719 6.71875 149.273438 C 7.300781 146.40625 7.949219 143.554688 8.664062 140.722656 C 9.382812 137.886719 10.164062 135.070312 11.015625 132.269531 C 11.863281 129.472656 12.777344 126.695312 13.757812 123.941406 C 14.734375 121.183594 15.78125 118.453125 16.886719 115.746094 C 17.996094 113.042969 19.167969 110.363281 20.402344 107.710938 C 21.636719 105.058594 22.929688 102.441406 24.289062 99.847656 C 25.644531 97.257812 27.0625 94.703125 28.542969 92.179688 C 30.019531 89.65625 31.554688 87.167969 33.148438 84.71875 C 34.746094 82.265625 36.394531 79.855469 38.105469 77.480469 C 39.8125 75.105469 41.574219 72.773438 43.394531 70.484375 C 45.210938 68.195312 47.082031 65.945312 49.007812 63.746094 C 50.929688 61.542969 52.90625 59.386719 54.929688 57.277344 C 56.957031 55.167969 59.027344 53.105469 61.152344 51.09375 C 63.273438 49.082031 65.441406 47.121094 67.65625 45.210938 C 69.871094 43.300781 72.128906 41.445312 74.429688 39.640625 C 76.734375 37.835938 79.074219 36.089844 81.460938 34.394531 C 83.84375 32.703125 86.265625 31.066406 88.726562 29.488281 C 91.1875 27.90625 93.683594 26.386719 96.21875 24.925781 C 98.75 23.460938 101.316406 22.0625 103.914062 20.71875 C 106.511719 19.378906 109.140625 18.097656 111.800781 16.882812 C 114.460938 15.664062 117.144531 14.511719 119.859375 13.417969 C 122.570312 12.328125 125.308594 11.300781 128.070312 10.339844 C 130.832031 9.375 133.613281 8.480469 136.417969 7.648438 C 139.222656 6.816406 142.042969 6.050781 144.882812 5.351562 C 147.722656 4.65625 150.578125 4.023438 153.445312 3.460938 C 156.316406 2.894531 159.199219 2.398438 162.089844 1.96875 C 164.984375 1.542969 167.882812 1.179688 170.792969 0.886719 C 171.3125 0.8125 171.832031 0.78125 172.351562 0.796875 C 172.875 0.8125 173.390625 0.875 173.902344 0.984375 C 174.414062 1.089844 174.914062 1.242188 175.398438 1.433594 C 175.882812 1.628906 176.347656 1.867188 176.789062 2.144531 C 177.234375 2.417969 177.648438 2.734375 178.035156 3.082031 C 178.425781 3.433594 178.777344 3.8125 179.101562 4.226562 C 179.421875 4.640625 179.703125 5.078125 179.945312 5.539062 C 180.191406 6 180.390625 6.480469 180.550781 6.980469 C 180.707031 7.476562 180.824219 7.984375 180.890625 8.503906 C 180.960938 9.019531 180.984375 9.539062 180.960938 10.0625 C 180.941406 10.585938 180.871094 11.101562 180.757812 11.609375 C 180.644531 12.121094 180.488281 12.617188 180.285156 13.097656 C 180.085938 13.582031 179.84375 14.042969 179.5625 14.480469 C 179.28125 14.921875 178.960938 15.332031 178.605469 15.71875 C 178.25 16.101562 177.863281 16.449219 177.449219 16.765625 C 177.03125 17.082031 176.589844 17.355469 176.125 17.59375 C 173.890625 18.84375 171.695312 20.15625 169.539062 21.535156 C 167.378906 22.910156 165.261719 24.347656 163.1875 25.847656 C 161.113281 27.347656 159.082031 28.902344 157.097656 30.519531 C 155.109375 32.136719 153.171875 33.808594 151.285156 35.535156 C 149.394531 37.261719 147.558594 39.042969 145.769531 40.875 C 143.984375 42.710938 142.253906 44.59375 140.574219 46.527344 C 138.898438 48.460938 137.277344 50.441406 135.714844 52.46875 C 134.152344 54.496094 132.648438 56.566406 131.203125 58.679688 C 129.757812 60.792969 128.378906 62.945312 127.058594 65.140625 C 125.738281 67.332031 124.484375 69.5625 123.292969 71.828125 C 122.101562 74.09375 120.976562 76.394531 119.917969 78.722656 C 118.859375 81.054688 117.867188 83.414062 116.945312 85.800781 C 116.023438 88.191406 115.171875 90.601562 114.386719 93.039062 C 113.605469 95.476562 112.890625 97.933594 112.25 100.414062 C 111.609375 102.890625 111.039062 105.386719 110.542969 107.898438 C 110.046875 110.40625 109.621094 112.929688 109.269531 115.46875 C 108.917969 118.003906 108.636719 120.546875 108.433594 123.097656 C 108.226562 125.648438 108.097656 128.203125 108.039062 130.765625 C 107.980469 133.324219 107.996094 135.882812 108.085938 138.441406 C 108.175781 141 108.339844 143.550781 108.578125 146.101562 C 108.816406 148.648438 109.125 151.191406 109.507812 153.71875 C 109.894531 156.25 110.351562 158.769531 110.878906 161.273438 C 111.40625 163.777344 112.007812 166.265625 112.679688 168.734375 C 113.355469 171.207031 114.097656 173.65625 114.910156 176.082031 C 115.722656 178.507812 116.605469 180.910156 117.558594 183.285156 C 118.511719 185.664062 119.53125 188.007812 120.621094 190.328125 C 121.707031 192.644531 122.859375 194.925781 124.082031 197.179688 C 125.300781 199.429688 126.582031 201.644531 127.929688 203.820312 C 129.277344 205.996094 130.6875 208.132812 132.15625 210.226562 C 133.628906 212.324219 135.15625 214.375 136.746094 216.382812 C 138.335938 218.390625 139.980469 220.347656 141.679688 222.261719 C 143.382812 224.171875 145.140625 226.035156 146.949219 227.847656 C 148.757812 229.65625 150.617188 231.414062 152.527344 233.117188 C 154.4375 234.820312 156.394531 236.46875 158.402344 238.058594 C 160.40625 239.648438 162.457031 241.183594 164.550781 242.652344 C 166.644531 244.125 168.78125 245.539062 170.957031 246.886719 C 173.128906 248.234375 175.34375 249.523438 177.59375 250.742188 C 179.84375 251.964844 182.125 253.121094 184.441406 254.210938 C 186.757812 255.300781 189.101562 256.324219 191.480469 257.277344 C 193.855469 258.234375 196.253906 259.117188 198.679688 259.933594 C 201.105469 260.75 203.554688 261.496094 206.023438 262.171875 C 208.492188 262.84375 210.980469 263.449219 213.484375 263.980469 C 215.988281 264.511719 218.503906 264.96875 221.035156 265.355469 C 223.566406 265.742188 226.105469 266.054688 228.65625 266.296875 C 231.203125 266.535156 233.757812 266.703125 236.316406 266.792969 C 238.875 266.886719 241.433594 266.90625 243.992188 266.851562 C 246.550781 266.792969 249.105469 266.664062 251.660156 266.464844 C 254.210938 266.261719 256.753906 265.984375 259.289062 265.636719 C 261.824219 265.285156 264.347656 264.863281 266.859375 264.367188 C 269.371094 263.875 271.867188 263.304688 274.347656 262.667969 C 276.824219 262.027344 279.285156 261.320312 281.722656 260.539062 C 284.160156 259.757812 286.574219 258.90625 288.960938 257.988281 C 291.351562 257.066406 293.710938 256.078125 296.042969 255.023438 C 298.375 253.964844 300.675781 252.84375 302.941406 251.65625 C 305.207031 250.464844 307.4375 249.214844 309.632812 247.894531 C 311.828125 246.578125 313.984375 245.199219 316.097656 243.757812 C 318.214844 242.316406 320.285156 240.8125 322.316406 239.25 C 324.34375 237.691406 326.324219 236.070312 328.261719 234.394531 C 330.195312 232.71875 332.082031 230.992188 333.917969 229.207031 C 335.75 227.421875 337.535156 225.585938 339.261719 223.699219 C 340.992188 221.8125 342.667969 219.875 344.285156 217.890625 C 345.902344 215.90625 347.460938 213.878906 348.960938 211.804688 C 350.460938 209.730469 351.902344 207.617188 353.28125 205.457031 C 354.660156 203.300781 355.976562 201.105469 357.226562 198.875 C 357.511719 198.457031 357.828125 198.070312 358.175781 197.707031 C 358.523438 197.34375 358.902344 197.011719 359.304688 196.710938 C 359.710938 196.410156 360.136719 196.144531 360.585938 195.917969 C 361.03125 195.6875 361.496094 195.496094 361.976562 195.34375 C 362.457031 195.191406 362.945312 195.082031 363.445312 195.011719 C 363.941406 194.941406 364.441406 194.910156 364.945312 194.925781 C 365.449219 194.9375 365.949219 194.992188 366.441406 195.089844 C 366.9375 195.183594 367.417969 195.320312 367.890625 195.496094 C 368.390625 195.597656 368.875 195.742188 369.347656 195.925781 C 369.820312 196.113281 370.277344 196.335938 370.710938 196.601562 C 371.144531 196.863281 371.554688 197.160156 371.941406 197.496094 C 372.324219 197.828125 372.675781 198.191406 372.996094 198.585938 C 373.320312 198.980469 373.605469 199.398438 373.855469 199.839844 C 374.105469 200.28125 374.3125 200.742188 374.484375 201.222656 C 374.65625 201.703125 374.785156 202.191406 374.871094 202.691406 C 374.957031 203.191406 375 203.699219 375 204.207031 Z M 375 204.207031 " fill-opacity="1" fill-rule="nonzero"/></svg>