<svg xmlns="http://www.w3.org/2000/svg" xmlns:xlink="http://www.w3.org/1999/xlink" width="500" zoomAndPan="magnify" viewBox="0 0 375 374.999991" height="500" preserveAspectRatio="xMidYMid meet" version="1.0"><defs><clipPath id="fe8b044267"><path d="M 148 37.5 L 375 37.5 L 375 229 L 148 229 Z M 148 37.5 " clip-rule="nonzero"/></clipPath></defs><path fill="#ff3131" d="M 106.488281 219.542969 C 104 219.542969 101.511719 218.980469 99.203125 217.824219 L 2.898438 168.851562 C 1.28125 168.03125 0.640625 166.054688 1.460938 164.441406 C 2.285156 162.824219 4.285156 162.183594 5.875 163.003906 L 102.152344 211.949219 C 105.644531 213.695312 109.824219 213.183594 112.773438 210.644531 L 183.066406 150.304688 C 184.453125 149.125 186.53125 149.277344 187.710938 150.664062 C 188.890625 152.023438 188.710938 154.101562 187.351562 155.28125 L 117.058594 215.621094 C 114.03125 218.210938 110.285156 219.542969 106.488281 219.542969 " fill-opacity="1" fill-rule="nonzero"/><path fill="#ff3131" d="M 10.132812 163.4375 C 7.875 165.390625 6.566406 168.238281 6.566406 171.289062 L 6.566406 257.382812 C 6.566406 261.285156 8.671875 264.773438 12.03125 266.492188 L 102.152344 312.644531 C 105.644531 314.414062 109.824219 313.898438 112.828125 311.359375 L 180.320312 253.792969 C 182.578125 251.84375 183.886719 248.996094 183.886719 245.941406 L 183.886719 159.847656 C 183.886719 155.949219 181.785156 152.460938 178.398438 150.742188 L 88.277344 104.589844 C 84.785156 102.820312 80.605469 103.304688 77.628906 105.871094 Z M 106.542969 320.261719 C 104.027344 320.261719 101.511719 319.671875 99.179688 318.492188 L 9.03125 272.339844 C 3.464844 269.46875 0 263.746094 0 257.382812 L 0 171.289062 C 0 166.3125 2.128906 161.644531 5.875 158.460938 L 73.34375 100.867188 C 78.371094 96.585938 85.402344 95.738281 91.277344 98.738281 L 181.398438 144.890625 C 186.992188 147.765625 190.457031 153.484375 190.457031 159.847656 L 190.457031 245.941406 C 190.457031 250.917969 188.300781 255.589844 184.582031 258.769531 L 117.085938 316.363281 C 114.058594 318.929688 110.3125 320.261719 106.542969 320.261719 " fill-opacity="1" fill-rule="nonzero"/><path fill="#ff3131" d="M 108.363281 317.800781 C 106.542969 317.800781 105.078125 316.335938 105.078125 314.515625 L 105.078125 216.261719 C 105.078125 214.464844 106.542969 212.976562 108.363281 212.976562 C 110.183594 212.976562 111.644531 214.464844 111.644531 216.261719 L 111.644531 314.515625 C 111.644531 316.335938 110.183594 317.800781 108.363281 317.800781 " fill-opacity="1" fill-rule="nonzero"/><path fill="#ff3131" d="M 213.441406 227.242188 C 212.929688 227.242188 212.414062 227.113281 211.953125 226.882812 C 210.335938 226.0625 209.671875 224.058594 210.515625 222.445312 L 259.464844 126.164062 C 261.210938 122.675781 260.695312 118.492188 258.128906 115.515625 L 199.613281 44.277344 C 198.460938 42.867188 198.640625 40.8125 200.050781 39.660156 C 201.460938 38.503906 203.511719 38.710938 204.667969 40.121094 L 263.183594 111.308594 C 267.417969 116.234375 268.265625 123.265625 265.3125 129.113281 L 216.367188 225.417969 C 215.777344 226.574219 214.621094 227.242188 213.441406 227.242188 " fill-opacity="1" fill-rule="nonzero"/><g clip-path="url(#fe8b044267)"><path fill="#ff3131" d="M 311.492188 228.316406 L 218.828125 228.316406 C 213.800781 228.316406 209.105469 226.164062 205.925781 222.417969 L 184.65625 197.480469 C 183.503906 196.097656 183.65625 194.042969 185.042969 192.863281 C 186.402344 191.683594 188.480469 191.839844 189.660156 193.222656 L 210.953125 218.183594 C 212.875 220.441406 215.722656 221.75 218.828125 221.75 L 311.492188 221.75 C 315.289062 221.75 318.855469 219.597656 320.597656 216.234375 L 366.671875 126.136719 C 367.621094 124.34375 367.980469 122.316406 367.671875 120.441406 C 367.417969 118.621094 366.671875 116.980469 365.414062 115.542969 L 307.875 47.996094 C 305.949219 45.738281 303.078125 44.429688 299.996094 44.429688 L 207.335938 44.429688 C 203.511719 44.429688 199.949219 46.585938 198.226562 49.945312 L 154.769531 134.910156 C 153.925781 136.527344 151.921875 137.144531 150.332031 136.347656 C 148.714844 135.503906 148.074219 133.527344 148.894531 131.9375 L 192.378906 46.945312 C 195.253906 41.351562 200.972656 37.863281 207.335938 37.863281 L 299.996094 37.863281 C 305 37.863281 309.695312 40.019531 312.875 43.761719 L 370.390625 111.257812 C 372.46875 113.644531 373.726562 116.414062 374.164062 119.492188 C 374.675781 122.726562 374.113281 126.085938 372.523438 129.140625 L 326.421875 219.238281 C 323.546875 224.828125 317.828125 228.316406 311.492188 228.316406 " fill-opacity="1" fill-rule="nonzero"/></g><path fill="#ff3131" d="M 370.90625 123.238281 L 263.773438 123.238281 C 261.953125 123.238281 260.492188 121.777344 260.492188 119.957031 C 260.492188 118.132812 261.953125 116.671875 263.773438 116.671875 L 370.90625 116.671875 C 372.726562 116.671875 374.1875 118.132812 374.1875 119.957031 C 374.1875 121.777344 372.726562 123.238281 370.90625 123.238281 " fill-opacity="1" fill-rule="nonzero"/><path fill="#ff3131" d="M 75.527344 159.359375 C 75.527344 155.742188 72.574219 152.792969 68.957031 152.792969 C 65.316406 152.792969 62.390625 155.742188 62.390625 159.359375 C 62.390625 162.976562 65.316406 165.925781 68.957031 165.925781 C 72.574219 165.925781 75.527344 162.976562 75.527344 159.359375 " fill-opacity="1" fill-rule="nonzero"/><path fill="#ff3131" d="M 32.835938 244.328125 C 32.835938 240.710938 29.914062 237.757812 26.269531 237.757812 C 22.652344 237.757812 19.703125 240.710938 19.703125 244.328125 C 19.703125 247.945312 22.652344 250.894531 26.269531 250.894531 C 29.914062 250.894531 32.835938 247.945312 32.835938 244.328125 " fill-opacity="1" fill-rule="nonzero"/><path fill="#ff3131" d="M 141.199219 231.191406 C 141.199219 227.574219 138.25 224.625 134.632812 224.625 C 130.988281 224.625 128.066406 227.574219 128.066406 231.191406 C 128.066406 234.808594 130.988281 237.757812 134.632812 237.757812 C 138.25 237.757812 141.199219 234.808594 141.199219 231.191406 " fill-opacity="1" fill-rule="nonzero"/><path fill="#ff3131" d="M 262.695312 67.417969 C 262.695312 63.800781 259.746094 60.847656 256.128906 60.847656 C 252.488281 60.847656 249.5625 63.800781 249.5625 67.417969 C 249.5625 71.035156 252.488281 73.984375 256.128906 73.984375 C 259.746094 73.984375 262.695312 71.035156 262.695312 67.417969 " fill-opacity="1" fill-rule="nonzero"/><path fill="#ff3131" d="M 305.386719 67.417969 C 305.386719 63.800781 302.433594 60.847656 298.816406 60.847656 C 295.175781 60.847656 292.25 63.800781 292.25 67.417969 C 292.25 71.035156 295.175781 73.984375 298.816406 73.984375 C 302.433594 73.984375 305.386719 71.035156 305.386719 67.417969 " fill-opacity="1" fill-rule="nonzero"/><path fill="#ff3131" d="M 282.398438 93.6875 C 282.398438 90.070312 279.449219 87.117188 275.832031 87.117188 C 272.1875 87.117188 269.265625 90.070312 269.265625 93.6875 C 269.265625 97.304688 272.1875 100.253906 275.832031 100.253906 C 279.449219 100.253906 282.398438 97.304688 282.398438 93.6875 " fill-opacity="1" fill-rule="nonzero"/><path fill="#ff3131" d="M 285.683594 145.816406 C 285.683594 142.199219 282.734375 139.246094 279.117188 139.246094 C 275.472656 139.246094 272.546875 142.199219 272.546875 145.816406 C 272.546875 149.433594 275.472656 152.382812 279.117188 152.382812 C 282.734375 152.382812 285.683594 149.433594 285.683594 145.816406 " fill-opacity="1" fill-rule="nonzero"/><path fill="#ff3131" d="M 298.816406 172.496094 C 298.816406 168.878906 295.867188 165.925781 292.25 165.925781 C 288.609375 165.925781 285.683594 168.878906 285.683594 172.496094 C 285.683594 176.113281 288.609375 179.0625 292.25 179.0625 C 295.867188 179.0625 298.816406 176.113281 298.816406 172.496094 " fill-opacity="1" fill-rule="nonzero"/><path fill="#ff3131" d="M 334.9375 145.816406 C 334.9375 142.199219 331.988281 139.246094 328.371094 139.246094 C 324.726562 139.246094 321.804688 142.199219 321.804688 145.816406 C 321.804688 149.433594 324.726562 152.382812 328.371094 152.382812 C 331.988281 152.382812 334.9375 149.433594 334.9375 145.816406 " fill-opacity="1" fill-rule="nonzero"/><path fill="#ff3131" d="M 262.695312 198.765625 C 262.695312 195.148438 259.746094 192.199219 256.128906 192.199219 C 252.488281 192.199219 249.5625 195.148438 249.5625 198.765625 C 249.5625 202.382812 252.488281 205.332031 256.128906 205.332031 C 259.746094 205.332031 262.695312 202.382812 262.695312 198.765625 " fill-opacity="1" fill-rule="nonzero"/><path fill="#ff3131" d="M 311.953125 198.765625 C 311.953125 195.148438 309.003906 192.199219 305.386719 192.199219 C 301.742188 192.199219 298.816406 195.148438 298.816406 198.765625 C 298.816406 202.382812 301.742188 205.332031 305.386719 205.332031 C 309.003906 205.332031 311.953125 202.382812 311.953125 198.765625 " fill-opacity="1" fill-rule="nonzero"/><path fill="#ff3131" d="M 325.085938 93.6875 C 325.085938 90.070312 322.136719 87.117188 318.519531 87.117188 C 314.878906 87.117188 311.953125 90.070312 311.953125 93.6875 C 311.953125 97.304688 314.878906 100.253906 318.519531 100.253906 C 322.136719 100.253906 325.085938 97.304688 325.085938 93.6875 " fill-opacity="1" fill-rule="nonzero"/><path fill="#ff3131" d="M 170.753906 205.332031 C 170.753906 201.714844 167.804688 198.765625 164.1875 198.765625 C 160.542969 198.765625 157.617188 201.714844 157.617188 205.332031 C 157.617188 208.949219 160.542969 211.898438 164.1875 211.898438 C 167.804688 211.898438 170.753906 208.949219 170.753906 205.332031 " fill-opacity="1" fill-rule="nonzero"/><path fill="#ff3131" d="M 141.199219 267.105469 C 141.199219 263.488281 138.25 260.539062 134.632812 260.539062 C 130.988281 260.539062 128.066406 263.488281 128.066406 267.105469 C 128.066406 270.722656 130.988281 273.675781 134.632812 273.675781 C 138.25 273.675781 141.199219 270.722656 141.199219 267.105469 " fill-opacity="1" fill-rule="nonzero"/><path fill="#ff3131" d="M 170.753906 241.246094 C 170.753906 237.628906 167.804688 234.679688 164.1875 234.679688 C 160.542969 234.679688 157.617188 237.628906 157.617188 241.246094 C 157.617188 244.863281 160.542969 247.816406 164.1875 247.816406 C 167.804688 247.816406 170.753906 244.863281 170.753906 241.246094 " fill-opacity="1" fill-rule="nonzero"/><path fill="#ff3131" d="M 63.621094 238.167969 C 63.621094 234.550781 60.671875 231.601562 57.054688 231.601562 C 53.410156 231.601562 50.488281 234.550781 50.488281 238.167969 C 50.488281 241.785156 53.410156 244.738281 57.054688 244.738281 C 60.671875 244.738281 63.621094 241.785156 63.621094 238.167969 " fill-opacity="1" fill-rule="nonzero"/><path fill="#ff3131" d="M 95.226562 231.601562 C 95.226562 227.984375 92.277344 225.035156 88.660156 225.035156 C 85.015625 225.035156 82.09375 227.984375 82.09375 231.601562 C 82.09375 235.21875 85.015625 238.167969 88.660156 238.167969 C 92.277344 238.167969 95.226562 235.21875 95.226562 231.601562 " fill-opacity="1" fill-rule="nonzero"/><path fill="#ff3131" d="M 128.066406 159.359375 C 128.066406 155.742188 125.113281 152.792969 121.496094 152.792969 C 117.855469 152.792969 114.929688 155.742188 114.929688 159.359375 C 114.929688 162.976562 117.855469 165.925781 121.496094 165.925781 C 125.113281 165.925781 128.066406 162.976562 128.066406 159.359375 " fill-opacity="1" fill-rule="nonzero"/><path fill="#ff3131" d="M 213.441406 133.089844 C 213.441406 129.472656 210.492188 126.523438 206.875 126.523438 C 203.230469 126.523438 200.304688 129.472656 200.304688 133.089844 C 200.304688 136.707031 203.230469 139.65625 206.875 139.65625 C 210.492188 139.65625 213.441406 136.707031 213.441406 133.089844 " fill-opacity="1" fill-rule="nonzero"/></svg>