<svg xmlns="http://www.w3.org/2000/svg" xmlns:xlink="http://www.w3.org/1999/xlink" width="500" zoomAndPan="magnify" viewBox="0 0 375 374.999991" height="500" preserveAspectRatio="xMidYMid meet" version="1.0"><path fill="#12e1b9" d="M 187.957031 -0.183594 C 187.082031 -0.167969 186.21875 -0.0703125 185.363281 0.113281 C 184.507812 0.296875 183.675781 0.5625 182.875 0.910156 C 182.070312 1.257812 181.308594 1.679688 180.585938 2.175781 C 179.867188 2.675781 179.203125 3.238281 178.59375 3.863281 C 177.984375 4.492188 177.441406 5.171875 176.964844 5.910156 C 176.488281 6.644531 176.089844 7.417969 175.765625 8.230469 C 175.441406 9.042969 175.199219 9.878906 175.042969 10.742188 C 174.882812 11.601562 174.808594 12.46875 174.820312 13.34375 L 174.820312 53.378906 C 174.808594 54.265625 174.882812 55.140625 175.046875 56.011719 C 175.207031 56.878906 175.453125 57.726562 175.78125 58.546875 C 176.113281 59.367188 176.519531 60.148438 177.003906 60.886719 C 177.488281 61.625 178.042969 62.308594 178.664062 62.941406 C 179.285156 63.570312 179.960938 64.132812 180.695312 64.628906 C 181.425781 65.121094 182.199219 65.539062 183.015625 65.882812 C 183.832031 66.222656 184.671875 66.480469 185.539062 66.65625 C 186.40625 66.828125 187.28125 66.917969 188.167969 66.917969 C 189.050781 66.917969 189.925781 66.828125 190.792969 66.65625 C 191.660156 66.480469 192.503906 66.222656 193.316406 65.882812 C 194.132812 65.539062 194.910156 65.121094 195.640625 64.628906 C 196.375 64.132812 197.050781 63.570312 197.671875 62.941406 C 198.292969 62.308594 198.84375 61.625 199.328125 60.886719 C 199.8125 60.148438 200.222656 59.367188 200.550781 58.546875 C 200.882812 57.726562 201.125 56.878906 201.289062 56.011719 C 201.449219 55.140625 201.523438 54.265625 201.511719 53.378906 L 201.511719 13.34375 C 201.523438 12.453125 201.449219 11.566406 201.28125 10.691406 C 201.117188 9.8125 200.867188 8.960938 200.53125 8.132812 C 200.195312 7.304688 199.777344 6.519531 199.285156 5.777344 C 198.789062 5.035156 198.226562 4.347656 197.59375 3.714844 C 196.964844 3.085938 196.273438 2.523438 195.53125 2.03125 C 194.785156 1.539062 194 1.125 193.171875 0.789062 C 192.34375 0.457031 191.492188 0.207031 190.613281 0.0429688 C 189.738281 -0.121094 188.851562 -0.195312 187.957031 -0.183594 Z M 65.351562 50.695312 C 64.023438 50.699219 62.726562 50.894531 61.457031 51.285156 C 60.191406 51.675781 59.007812 52.242188 57.910156 52.984375 C 56.808594 53.726562 55.84375 54.613281 55.007812 55.640625 C 54.171875 56.671875 53.507812 57.804688 53.007812 59.03125 C 52.511719 60.261719 52.203125 61.535156 52.085938 62.859375 C 51.96875 64.179688 52.046875 65.488281 52.316406 66.785156 C 52.589844 68.085938 53.046875 69.316406 53.6875 70.476562 C 54.324219 71.636719 55.121094 72.683594 56.070312 73.605469 L 84.378906 101.914062 C 84.992188 102.554688 85.664062 103.128906 86.394531 103.632812 C 87.121094 104.140625 87.894531 104.570312 88.710938 104.921875 C 89.523438 105.273438 90.367188 105.542969 91.234375 105.726562 C 92.101562 105.910156 92.980469 106.007812 93.867188 106.015625 C 94.757812 106.023438 95.636719 105.945312 96.507812 105.78125 C 97.378906 105.613281 98.226562 105.363281 99.050781 105.027344 C 99.871094 104.691406 100.652344 104.277344 101.390625 103.785156 C 102.128906 103.292969 102.8125 102.734375 103.441406 102.109375 C 104.070312 101.480469 104.628906 100.796875 105.121094 100.058594 C 105.613281 99.316406 106.023438 98.535156 106.359375 97.714844 C 106.695312 96.894531 106.949219 96.046875 107.113281 95.175781 C 107.28125 94.300781 107.359375 93.421875 107.351562 92.535156 C 107.339844 91.648438 107.246094 90.769531 107.058594 89.898438 C 106.875 89.03125 106.609375 88.191406 106.253906 87.375 C 105.902344 86.558594 105.472656 85.789062 104.96875 85.058594 C 104.460938 84.328125 103.886719 83.65625 103.246094 83.042969 L 74.941406 54.734375 C 73.683594 53.441406 72.21875 52.445312 70.554688 51.742188 C 68.890625 51.042969 67.15625 50.691406 65.351562 50.695312 Z M 310.566406 50.695312 C 308.835938 50.746094 307.171875 51.121094 305.585938 51.820312 C 304 52.519531 302.601562 53.492188 301.394531 54.734375 L 273.085938 83.042969 C 272.445312 83.65625 271.871094 84.328125 271.367188 85.058594 C 270.859375 85.789062 270.429688 86.558594 270.078125 87.375 C 269.726562 88.191406 269.457031 89.03125 269.273438 89.898438 C 269.089844 90.769531 268.992188 91.648438 268.984375 92.535156 C 268.976562 93.421875 269.054688 94.300781 269.21875 95.171875 C 269.386719 96.046875 269.636719 96.894531 269.972656 97.714844 C 270.308594 98.535156 270.722656 99.316406 271.214844 100.054688 C 271.707031 100.796875 272.265625 101.480469 272.894531 102.105469 C 273.519531 102.734375 274.203125 103.292969 274.941406 103.785156 C 275.683594 104.277344 276.464844 104.691406 277.285156 105.027344 C 278.105469 105.363281 278.953125 105.613281 279.824219 105.78125 C 280.699219 105.945312 281.578125 106.023438 282.464844 106.015625 C 283.351562 106.007812 284.230469 105.910156 285.101562 105.726562 C 285.96875 105.542969 286.808594 105.273438 287.625 104.921875 C 288.441406 104.570312 289.210938 104.140625 289.941406 103.632812 C 290.671875 103.128906 291.34375 102.554688 291.957031 101.914062 L 320.265625 73.605469 C 320.742188 73.140625 321.183594 72.640625 321.589844 72.109375 C 321.992188 71.578125 322.355469 71.015625 322.675781 70.429688 C 322.996094 69.84375 323.269531 69.238281 323.5 68.609375 C 323.730469 67.980469 323.910156 67.339844 324.042969 66.683594 C 324.175781 66.027344 324.257812 65.367188 324.292969 64.699219 C 324.324219 64.03125 324.308594 63.363281 324.242188 62.699219 C 324.171875 62.035156 324.058594 61.378906 323.890625 60.730469 C 323.726562 60.082031 323.511719 59.449219 323.253906 58.835938 C 322.992188 58.21875 322.6875 57.625 322.335938 57.058594 C 321.988281 56.488281 321.597656 55.945312 321.167969 55.433594 C 320.734375 54.925781 320.269531 54.449219 319.765625 54.007812 C 319.265625 53.566406 318.730469 53.164062 318.167969 52.804688 C 317.605469 52.441406 317.019531 52.125 316.410156 51.851562 C 315.800781 51.578125 315.171875 51.355469 314.527344 51.175781 C 313.882812 50.996094 313.230469 50.867188 312.566406 50.785156 C 311.902344 50.707031 311.234375 50.675781 310.566406 50.695312 Z M 188.167969 93.417969 C 186.636719 93.417969 185.109375 93.453125 183.582031 93.527344 C 182.054688 93.605469 180.53125 93.714844 179.011719 93.867188 C 177.488281 94.015625 175.972656 94.203125 174.460938 94.425781 C 172.949219 94.652344 171.441406 94.914062 169.941406 95.210938 C 168.441406 95.507812 166.953125 95.84375 165.46875 96.214844 C 163.984375 96.585938 162.511719 96.996094 161.050781 97.4375 C 159.585938 97.882812 158.136719 98.363281 156.695312 98.878906 C 155.257812 99.390625 153.832031 99.941406 152.417969 100.527344 C 151.007812 101.113281 149.609375 101.730469 148.226562 102.386719 C 146.84375 103.039062 145.480469 103.726562 144.132812 104.445312 C 142.78125 105.167969 141.453125 105.921875 140.140625 106.707031 C 138.832031 107.492188 137.539062 108.308594 136.269531 109.160156 C 134.996094 110.007812 133.746094 110.890625 132.519531 111.800781 C 131.292969 112.710938 130.085938 113.652344 128.90625 114.621094 C 127.722656 115.589844 126.566406 116.589844 125.433594 117.617188 C 124.300781 118.640625 123.191406 119.695312 122.113281 120.777344 C 121.03125 121.859375 119.976562 122.964844 118.949219 124.097656 C 117.921875 125.230469 116.925781 126.386719 115.957031 127.570312 C 114.984375 128.75 114.046875 129.957031 113.132812 131.183594 C 112.222656 132.414062 111.34375 133.664062 110.496094 134.933594 C 109.644531 136.203125 108.828125 137.496094 108.042969 138.808594 C 107.253906 140.117188 106.503906 141.449219 105.78125 142.796875 C 105.0625 144.144531 104.375 145.511719 103.71875 146.890625 C 103.066406 148.273438 102.445312 149.671875 101.863281 151.082031 C 101.277344 152.496094 100.726562 153.921875 100.210938 155.363281 C 99.695312 156.800781 99.21875 158.253906 98.773438 159.714844 C 98.328125 161.179688 97.921875 162.652344 97.550781 164.132812 C 97.179688 165.617188 96.84375 167.109375 96.546875 168.609375 C 96.246094 170.109375 95.984375 171.613281 95.761719 173.125 C 95.539062 174.636719 95.351562 176.15625 95.199219 177.675781 C 95.050781 179.199219 94.9375 180.722656 94.863281 182.25 C 94.789062 183.777344 94.75 185.304688 94.75 186.832031 C 94.75 188.363281 94.789062 189.890625 94.863281 191.417969 C 94.9375 192.945312 95.050781 194.46875 95.199219 195.988281 C 95.351562 197.511719 95.539062 199.027344 95.761719 200.539062 C 95.984375 202.050781 96.246094 203.558594 96.546875 205.058594 C 96.84375 206.558594 97.179688 208.046875 97.550781 209.53125 C 97.921875 211.015625 98.328125 212.488281 98.773438 213.949219 C 99.21875 215.414062 99.695312 216.863281 100.210938 218.304688 C 100.726562 219.742188 101.277344 221.167969 101.863281 222.582031 C 102.445312 223.992188 103.066406 225.390625 103.71875 226.773438 C 104.375 228.15625 105.0625 229.519531 105.78125 230.867188 C 106.503906 232.21875 107.253906 233.546875 108.042969 234.859375 C 108.828125 236.167969 109.644531 237.460938 110.496094 238.730469 C 111.34375 240.003906 112.222656 241.253906 113.132812 242.480469 C 114.046875 243.707031 114.984375 244.914062 115.957031 246.09375 C 116.925781 247.277344 117.921875 248.433594 118.949219 249.566406 C 119.976562 250.699219 121.03125 251.808594 122.113281 252.886719 C 123.191406 253.96875 124.300781 255.023438 125.433594 256.050781 C 126.566406 257.078125 127.722656 258.074219 128.90625 259.042969 C 130.085938 260.015625 131.292969 260.953125 132.519531 261.867188 C 133.746094 262.777344 134.996094 263.65625 136.269531 264.503906 C 137.539062 265.355469 138.832031 266.171875 140.140625 266.957031 C 141.453125 267.746094 142.78125 268.496094 144.132812 269.21875 C 145.480469 269.9375 146.84375 270.625 148.226562 271.28125 C 149.609375 271.933594 151.007812 272.554688 152.417969 273.136719 C 153.832031 273.722656 155.257812 274.273438 156.695312 274.789062 C 158.136719 275.304688 159.585938 275.78125 161.050781 276.226562 C 162.511719 276.671875 163.984375 277.078125 165.46875 277.449219 C 166.953125 277.820312 168.441406 278.15625 169.941406 278.453125 C 171.441406 278.753906 172.949219 279.015625 174.460938 279.238281 C 175.972656 279.460938 177.488281 279.648438 179.011719 279.800781 C 180.53125 279.949219 182.054688 280.0625 183.582031 280.136719 C 185.109375 280.210938 186.636719 280.25 188.167969 280.25 C 189.695312 280.25 191.222656 280.210938 192.75 280.136719 C 194.277344 280.0625 195.800781 279.949219 197.324219 279.800781 C 198.84375 279.648438 200.363281 279.460938 201.875 279.238281 C 203.386719 279.011719 204.890625 278.753906 206.390625 278.453125 C 207.890625 278.15625 209.382812 277.820312 210.867188 277.449219 C 212.347656 277.078125 213.820312 276.671875 215.285156 276.226562 C 216.746094 275.78125 218.199219 275.304688 219.636719 274.789062 C 221.078125 274.273438 222.503906 273.722656 223.917969 273.136719 C 225.328125 272.554688 226.726562 271.933594 228.109375 271.28125 C 229.488281 270.625 230.855469 269.9375 232.203125 269.21875 C 233.550781 268.496094 234.882812 267.746094 236.191406 266.957031 C 237.503906 266.171875 238.796875 265.355469 240.066406 264.503906 C 241.335938 263.65625 242.585938 262.777344 243.816406 261.867188 C 245.042969 260.953125 246.25 260.015625 247.429688 259.042969 C 248.613281 258.074219 249.769531 257.078125 250.902344 256.050781 C 252.035156 255.023438 253.140625 253.96875 254.222656 252.886719 C 255.304688 251.808594 256.359375 250.699219 257.382812 249.566406 C 258.410156 248.433594 259.410156 247.277344 260.378906 246.09375 C 261.347656 244.914062 262.289062 243.707031 263.199219 242.480469 C 264.109375 241.253906 264.992188 240.003906 265.839844 238.730469 C 266.691406 237.460938 267.507812 236.167969 268.292969 234.859375 C 269.078125 233.546875 269.832031 232.21875 270.554688 230.867188 C 271.273438 229.519531 271.960938 228.15625 272.613281 226.773438 C 273.269531 225.390625 273.886719 223.992188 274.472656 222.582031 C 275.058594 221.167969 275.609375 219.742188 276.121094 218.304688 C 276.636719 216.863281 277.117188 215.414062 277.5625 213.949219 C 278.003906 212.488281 278.414062 211.015625 278.785156 209.53125 C 279.15625 208.046875 279.492188 206.558594 279.789062 205.058594 C 280.085938 203.558594 280.347656 202.050781 280.574219 200.539062 C 280.796875 199.027344 280.984375 197.511719 281.132812 195.988281 C 281.285156 194.46875 281.394531 192.945312 281.472656 191.417969 C 281.546875 189.890625 281.582031 188.363281 281.582031 186.832031 C 281.582031 185.304688 281.546875 183.777344 281.472656 182.25 C 281.394531 180.722656 281.285156 179.199219 281.132812 177.675781 C 280.984375 176.15625 280.796875 174.636719 280.574219 173.125 C 280.347656 171.613281 280.085938 170.109375 279.789062 168.609375 C 279.492188 167.109375 279.15625 165.617188 278.785156 164.132812 C 278.414062 162.652344 278.003906 161.179688 277.5625 159.714844 C 277.117188 158.253906 276.636719 156.800781 276.121094 155.363281 C 275.609375 153.921875 275.058594 152.496094 274.472656 151.082031 C 273.886719 149.671875 273.269531 148.273438 272.613281 146.890625 C 271.960938 145.511719 271.273438 144.144531 270.554688 142.796875 C 269.832031 141.449219 269.078125 140.117188 268.292969 138.808594 C 267.507812 137.496094 266.691406 136.203125 265.839844 134.933594 C 264.992188 133.664062 264.109375 132.414062 263.199219 131.183594 C 262.289062 129.957031 261.347656 128.75 260.378906 127.570312 C 259.410156 126.386719 258.410156 125.230469 257.382812 124.097656 C 256.359375 122.964844 255.304688 121.859375 254.222656 120.777344 C 253.140625 119.695312 252.035156 118.640625 250.902344 117.617188 C 249.769531 116.589844 248.613281 115.589844 247.429688 114.621094 C 246.25 113.652344 245.042969 112.710938 243.816406 111.800781 C 242.585938 110.890625 241.335938 110.007812 240.066406 109.160156 C 238.796875 108.308594 237.503906 107.492188 236.191406 106.707031 C 234.882812 105.921875 233.550781 105.167969 232.203125 104.445312 C 230.855469 103.726562 229.488281 103.039062 228.109375 102.386719 C 226.726562 101.730469 225.328125 101.113281 223.917969 100.527344 C 222.503906 99.941406 221.078125 99.390625 219.636719 98.878906 C 218.199219 98.363281 216.746094 97.882812 215.285156 97.4375 C 213.820312 96.996094 212.347656 96.585938 210.867188 96.214844 C 209.382812 95.84375 207.890625 95.507812 206.390625 95.210938 C 204.890625 94.914062 203.386719 94.652344 201.875 94.425781 C 200.363281 94.203125 198.84375 94.015625 197.324219 93.867188 C 195.800781 93.714844 194.277344 93.605469 192.75 93.527344 C 191.222656 93.453125 189.695312 93.417969 188.167969 93.417969 Z M 14.679688 173.488281 C 13.796875 173.476562 12.917969 173.550781 12.050781 173.710938 C 11.179688 173.875 10.335938 174.117188 9.515625 174.449219 C 8.695312 174.777344 7.914062 175.183594 7.175781 175.671875 C 6.433594 176.15625 5.75 176.707031 5.121094 177.328125 C 4.492188 177.949219 3.929688 178.625 3.433594 179.359375 C 2.9375 180.089844 2.519531 180.867188 2.179688 181.683594 C 1.835938 182.496094 1.578125 183.339844 1.40625 184.207031 C 1.230469 185.074219 1.144531 185.949219 1.144531 186.832031 C 1.144531 187.71875 1.230469 188.59375 1.40625 189.460938 C 1.578125 190.328125 1.835938 191.167969 2.179688 191.984375 C 2.519531 192.800781 2.9375 193.574219 3.433594 194.304688 C 3.929688 195.039062 4.492188 195.714844 5.121094 196.335938 C 5.75 196.957031 6.433594 197.511719 7.175781 197.996094 C 7.914062 198.480469 8.695312 198.886719 9.515625 199.21875 C 10.335938 199.546875 11.179688 199.792969 12.050781 199.953125 C 12.917969 200.117188 13.796875 200.191406 14.679688 200.179688 L 54.714844 200.179688 C 55.597656 200.191406 56.476562 200.117188 57.34375 199.953125 C 58.214844 199.792969 59.058594 199.546875 59.878906 199.21875 C 60.699219 198.886719 61.480469 198.480469 62.21875 197.996094 C 62.960938 197.511719 63.644531 196.957031 64.273438 196.335938 C 64.902344 195.714844 65.464844 195.039062 65.960938 194.304688 C 66.457031 193.574219 66.875 192.800781 67.214844 191.984375 C 67.558594 191.167969 67.816406 190.328125 67.988281 189.460938 C 68.164062 188.59375 68.25 187.71875 68.25 186.832031 C 68.25 185.949219 68.164062 185.074219 67.988281 184.207031 C 67.816406 183.339844 67.558594 182.496094 67.214844 181.683594 C 66.875 180.867188 66.457031 180.089844 65.960938 179.359375 C 65.464844 178.625 64.902344 177.949219 64.273438 177.328125 C 63.644531 176.707031 62.960938 176.15625 62.21875 175.671875 C 61.480469 175.183594 60.699219 174.777344 59.878906 174.449219 C 59.058594 174.117188 58.214844 173.875 57.34375 173.710938 C 56.476562 173.550781 55.597656 173.476562 54.714844 173.488281 Z M 321.621094 173.488281 C 320.734375 173.476562 319.859375 173.550781 318.988281 173.710938 C 318.121094 173.875 317.273438 174.117188 316.453125 174.449219 C 315.632812 174.777344 314.851562 175.1875 314.113281 175.671875 C 313.375 176.15625 312.691406 176.707031 312.058594 177.328125 C 311.429688 177.949219 310.867188 178.625 310.371094 179.359375 C 309.878906 180.089844 309.460938 180.867188 309.117188 181.683594 C 308.777344 182.496094 308.519531 183.339844 308.34375 184.207031 C 308.171875 185.074219 308.082031 185.949219 308.082031 186.832031 C 308.082031 187.71875 308.171875 188.59375 308.34375 189.460938 C 308.519531 190.328125 308.777344 191.167969 309.117188 191.984375 C 309.460938 192.800781 309.878906 193.574219 310.371094 194.304688 C 310.867188 195.039062 311.429688 195.714844 312.058594 196.335938 C 312.691406 196.957031 313.375 197.511719 314.113281 197.996094 C 314.851562 198.480469 315.632812 198.886719 316.453125 199.21875 C 317.273438 199.546875 318.121094 199.792969 318.988281 199.953125 C 319.859375 200.117188 320.734375 200.191406 321.621094 200.179688 L 361.65625 200.179688 C 362.539062 200.191406 363.414062 200.117188 364.285156 199.953125 C 365.15625 199.792969 366 199.546875 366.820312 199.21875 C 367.640625 198.886719 368.421875 198.480469 369.160156 197.996094 C 369.898438 197.511719 370.585938 196.957031 371.214844 196.335938 C 371.84375 195.714844 372.40625 195.039062 372.902344 194.304688 C 373.398438 193.574219 373.816406 192.800781 374.15625 191.984375 C 374.496094 191.167969 374.753906 190.328125 374.929688 189.460938 C 375.101562 188.59375 375.191406 187.71875 375.191406 186.832031 C 375.191406 185.949219 375.101562 185.074219 374.929688 184.207031 C 374.753906 183.339844 374.496094 182.496094 374.15625 181.683594 C 373.816406 180.867188 373.398438 180.089844 372.902344 179.359375 C 372.40625 178.625 371.84375 177.949219 371.214844 177.328125 C 370.585938 176.707031 369.898438 176.15625 369.160156 175.671875 C 368.421875 175.1875 367.640625 174.777344 366.820312 174.449219 C 366 174.117188 365.15625 173.875 364.285156 173.710938 C 363.414062 173.550781 362.539062 173.476562 361.65625 173.488281 Z M 93.550781 267.710938 C 91.820312 267.761719 90.15625 268.140625 88.570312 268.835938 C 86.984375 269.535156 85.585938 270.507812 84.378906 271.75 L 56.070312 300.058594 C 55.429688 300.671875 54.855469 301.34375 54.351562 302.074219 C 53.84375 302.804688 53.414062 303.574219 53.0625 304.390625 C 52.710938 305.207031 52.441406 306.046875 52.257812 306.914062 C 52.074219 307.785156 51.976562 308.664062 51.96875 309.550781 C 51.960938 310.4375 52.039062 311.316406 52.203125 312.191406 C 52.371094 313.0625 52.621094 313.910156 52.957031 314.730469 C 53.292969 315.550781 53.707031 316.332031 54.199219 317.074219 C 54.6875 317.8125 55.25 318.496094 55.875 319.125 C 56.503906 319.75 57.1875 320.3125 57.925781 320.800781 C 58.667969 321.292969 59.449219 321.707031 60.269531 322.042969 C 61.089844 322.378906 61.9375 322.628906 62.808594 322.796875 C 63.683594 322.960938 64.5625 323.039062 65.449219 323.03125 C 66.335938 323.023438 67.214844 322.925781 68.085938 322.742188 C 68.953125 322.558594 69.792969 322.289062 70.609375 321.9375 C 71.425781 321.585938 72.195312 321.15625 72.925781 320.648438 C 73.65625 320.144531 74.328125 319.570312 74.941406 318.929688 L 103.246094 290.621094 C 103.726562 290.15625 104.167969 289.65625 104.574219 289.125 C 104.976562 288.59375 105.339844 288.035156 105.660156 287.445312 C 105.980469 286.859375 106.253906 286.253906 106.484375 285.625 C 106.714844 284.996094 106.894531 284.355469 107.027344 283.699219 C 107.160156 283.042969 107.242188 282.382812 107.277344 281.714844 C 107.308594 281.046875 107.292969 280.378906 107.226562 279.714844 C 107.15625 279.050781 107.042969 278.394531 106.875 277.746094 C 106.710938 277.097656 106.496094 276.464844 106.238281 275.851562 C 105.976562 275.234375 105.671875 274.640625 105.320312 274.074219 C 104.972656 273.503906 104.582031 272.960938 104.152344 272.449219 C 103.71875 271.941406 103.253906 271.464844 102.75 271.023438 C 102.25 270.582031 101.714844 270.179688 101.152344 269.820312 C 100.589844 269.457031 100.003906 269.140625 99.394531 268.867188 C 98.78125 268.597656 98.15625 268.371094 97.511719 268.191406 C 96.867188 268.011719 96.214844 267.882812 95.550781 267.804688 C 94.886719 267.722656 94.21875 267.691406 93.550781 267.710938 Z M 282.390625 267.710938 C 281.0625 267.710938 279.765625 267.90625 278.496094 268.292969 C 277.226562 268.683594 276.042969 269.246094 274.941406 269.988281 C 273.839844 270.730469 272.871094 271.613281 272.035156 272.644531 C 271.195312 273.675781 270.527344 274.804688 270.03125 276.035156 C 269.53125 277.265625 269.222656 278.542969 269.101562 279.863281 C 268.984375 281.1875 269.058594 282.496094 269.332031 283.796875 C 269.605469 285.09375 270.0625 286.328125 270.699219 287.488281 C 271.339844 288.652344 272.136719 289.695312 273.085938 290.621094 L 301.394531 318.929688 C 302.007812 319.570312 302.679688 320.144531 303.410156 320.648438 C 304.136719 321.15625 304.910156 321.585938 305.726562 321.9375 C 306.539062 322.289062 307.382812 322.558594 308.25 322.742188 C 309.117188 322.925781 309.996094 323.023438 310.882812 323.03125 C 311.773438 323.042969 312.652344 322.960938 313.523438 322.796875 C 314.394531 322.628906 315.242188 322.378906 316.066406 322.042969 C 316.886719 321.707031 317.667969 321.292969 318.40625 320.800781 C 319.148438 320.3125 319.832031 319.75 320.457031 319.125 C 321.085938 318.496094 321.644531 317.8125 322.136719 317.074219 C 322.628906 316.332031 323.042969 315.554688 323.378906 314.730469 C 323.710938 313.910156 323.964844 313.0625 324.128906 312.191406 C 324.296875 311.316406 324.375 310.4375 324.367188 309.550781 C 324.359375 308.664062 324.261719 307.785156 324.078125 306.914062 C 323.890625 306.046875 323.625 305.207031 323.273438 304.390625 C 322.917969 303.574219 322.492188 302.804688 321.984375 302.074219 C 321.476562 301.34375 320.902344 300.671875 320.265625 300.058594 L 291.957031 271.75 C 290.703125 270.460938 289.242188 269.464844 287.582031 268.761719 C 285.925781 268.0625 284.191406 267.710938 282.390625 267.710938 Z M 187.957031 306.757812 C 187.082031 306.769531 186.21875 306.871094 185.363281 307.054688 C 184.507812 307.238281 183.675781 307.503906 182.875 307.851562 C 182.070312 308.195312 181.308594 308.621094 180.585938 309.117188 C 179.867188 309.613281 179.203125 310.175781 178.59375 310.804688 C 177.984375 311.433594 177.441406 312.113281 176.964844 312.847656 C 176.488281 313.582031 176.089844 314.355469 175.765625 315.167969 C 175.441406 315.984375 175.199219 316.820312 175.042969 317.679688 C 174.882812 318.542969 174.808594 319.410156 174.820312 320.285156 L 174.820312 360.320312 C 174.808594 361.203125 174.882812 362.082031 175.046875 362.949219 C 175.207031 363.820312 175.453125 364.664062 175.78125 365.484375 C 176.113281 366.304688 176.519531 367.085938 177.003906 367.824219 C 177.488281 368.566406 178.042969 369.25 178.664062 369.878906 C 179.285156 370.507812 179.960938 371.070312 180.695312 371.566406 C 181.425781 372.0625 182.199219 372.480469 183.015625 372.820312 C 183.832031 373.164062 184.671875 373.421875 185.539062 373.59375 C 186.40625 373.769531 187.28125 373.855469 188.167969 373.855469 C 189.050781 373.855469 189.925781 373.769531 190.792969 373.59375 C 191.660156 373.421875 192.503906 373.164062 193.316406 372.820312 C 194.132812 372.480469 194.910156 372.0625 195.640625 371.566406 C 196.375 371.070312 197.050781 370.507812 197.671875 369.878906 C 198.292969 369.25 198.84375 368.566406 199.328125 367.824219 C 199.8125 367.085938 200.222656 366.304688 200.550781 365.484375 C 200.882812 364.664062 201.125 363.820312 201.289062 362.949219 C 201.449219 362.082031 201.523438 361.203125 201.511719 360.320312 L 201.511719 320.285156 C 201.523438 319.390625 201.449219 318.507812 201.28125 317.628906 C 201.117188 316.753906 200.867188 315.898438 200.53125 315.074219 C 200.195312 314.246094 199.777344 313.460938 199.285156 312.71875 C 198.789062 311.972656 198.226562 311.285156 197.59375 310.65625 C 196.964844 310.023438 196.273438 309.464844 195.53125 308.96875 C 194.785156 308.476562 194 308.0625 193.171875 307.730469 C 192.34375 307.394531 191.492188 307.144531 190.613281 306.980469 C 189.738281 306.816406 188.851562 306.742188 187.957031 306.757812 Z M 187.957031 306.757812 " fill-opacity="1" fill-rule="nonzero"/></svg>