<svg xmlns="http://www.w3.org/2000/svg" xmlns:xlink="http://www.w3.org/1999/xlink" width="500" zoomAndPan="magnify" viewBox="0 0 375 374.999991" height="500" preserveAspectRatio="xMidYMid meet" version="1.0"><defs><clipPath id="c4fbc4dead"><path d="M 55 55.625 L 319 55.625 L 319 319 L 55 319 Z M 55 55.625 " clip-rule="nonzero"/></clipPath></defs><path fill="#ff3131" d="M 228.925781 187.144531 C 228.925781 184.785156 228.683594 182.480469 228.296875 180.199219 L 180.21875 228.277344 C 182.496094 228.65625 184.808594 228.910156 187.160156 228.910156 C 210.1875 228.910156 228.925781 210.167969 228.925781 187.144531 Z M 228.925781 187.144531 " fill-opacity="1" fill-rule="nonzero"/><path fill="#ff3131" d="M 273.21875 135.28125 L 239.414062 169.089844 C 241.429688 174.863281 242.484375 180.90625 242.484375 187.148438 C 242.484375 217.660156 217.671875 242.476562 187.160156 242.476562 C 180.9375 242.476562 174.894531 241.410156 169.105469 239.398438 L 135.210938 273.289062 C 136.230469 273.574219 137.265625 273.878906 138.277344 274.144531 C 139.578125 274.488281 140.222656 274.667969 140.90625 274.808594 C 142.730469 275.304688 144.101562 275.609375 145.472656 275.921875 L 148.488281 276.542969 C 153.449219 277.628906 158.367188 278.484375 163.363281 279.140625 C 165.75 279.460938 168.171875 279.71875 170.589844 279.96875 C 170.699219 279.96875 170.792969 279.980469 170.875 279.988281 C 172.917969 280.164062 174.957031 280.292969 176.992188 280.410156 C 180.726562 280.644531 183.914062 280.707031 187.085938 280.707031 C 190.257812 280.707031 193.488281 280.613281 196.714844 280.441406 C 197.75 280.390625 198.789062 280.265625 199.824219 280.191406 C 202.023438 280.035156 204.21875 279.886719 206.429688 279.648438 C 207.65625 279.519531 208.890625 279.324219 210.125 279.160156 C 212.152344 278.902344 214.179688 278.660156 216.21875 278.335938 C 217.542969 278.125 218.871094 277.847656 220.191406 277.609375 C 222.152344 277.257812 224.113281 276.917969 226.078125 276.503906 C 227.449219 276.210938 228.832031 275.859375 230.207031 275.542969 C 232.132812 275.09375 234.058594 274.660156 235.992188 274.152344 C 237.40625 273.777344 238.824219 273.351562 240.242188 272.949219 C 242.140625 272.410156 244.046875 271.878906 245.949219 271.285156 C 247.40625 270.828125 248.871094 270.3125 250.332031 269.824219 C 252.195312 269.203125 254.058594 268.585938 255.921875 267.90625 C 257.449219 267.359375 258.976562 266.746094 260.5 266.164062 C 261.875 265.636719 263.253906 265.101562 264.636719 264.539062 C 275.308594 238.238281 280.71875 212.210938 280.71875 187.144531 C 280.71875 170.320312 278.101562 152.917969 273.210938 135.28125 Z M 273.21875 135.28125 " fill-opacity="1" fill-rule="nonzero"/><path fill="#ff3131" d="M 238.695312 101.445312 C 237.78125 101.171875 236.8125 100.847656 235.910156 100.609375 C 227.746094 98.324219 220.292969 96.71875 212.980469 95.675781 C 211.542969 95.4375 210.578125 95.269531 209.574219 95.152344 C 201.941406 94.148438 194.414062 93.640625 187.09375 93.640625 C 183.949219 93.640625 180.78125 93.734375 177.609375 93.917969 C 176.523438 93.980469 175.425781 94.113281 174.339844 94.195312 C 172.246094 94.359375 170.148438 94.507812 168.042969 94.746094 C 166.707031 94.902344 165.355469 95.125 164.015625 95.308594 C 162.144531 95.566406 160.277344 95.796875 158.398438 96.113281 C 156.941406 96.359375 155.476562 96.683594 154.011719 96.96875 C 152.238281 97.316406 150.46875 97.632812 148.683594 98.035156 C 147.164062 98.371094 145.648438 98.785156 144.128906 99.167969 C 142.394531 99.601562 140.65625 100.011719 138.90625 100.496094 C 137.363281 100.929688 135.800781 101.421875 134.25 101.898438 C 132.527344 102.421875 130.804688 102.929688 129.078125 103.5 C 127.515625 104.015625 125.957031 104.597656 124.390625 105.152344 C 122.65625 105.769531 120.921875 106.378906 119.179688 107.050781 C 117.625 107.648438 116.074219 108.304688 114.519531 108.9375 C 113.164062 109.492188 111.800781 110.046875 110.4375 110.636719 C 99.304688 136.421875 93.65625 162.144531 93.65625 187.128906 C 93.65625 203.769531 96.398438 221.050781 101.515625 238.609375 L 134.894531 205.234375 C 132.886719 199.457031 131.828125 193.386719 131.828125 187.136719 C 131.828125 156.625 156.644531 131.8125 187.152344 131.8125 C 193.417969 131.8125 199.480469 132.871094 205.25 134.875 L 238.6875 101.4375 Z M 238.695312 101.445312 " fill-opacity="1" fill-rule="nonzero"/><path fill="#ff3131" d="M -0.191406 190.5 C 10.933594 201.640625 43.046875 231.640625 86.246094 253.890625 L 90.667969 249.472656 C 83.738281 228.265625 80.097656 207.308594 80.097656 187.144531 C 80.097656 164.804688 84.335938 141.988281 92.574219 119.121094 C 45.90625 143.363281 11.261719 178.144531 -0.199219 190.5 Z M -0.191406 190.5 " fill-opacity="1" fill-rule="nonzero"/><g clip-path="url(#c4fbc4dead)"><path fill="#ff3131" d="M 318.394531 66.527344 C 318.394531 63.691406 317.296875 61.027344 315.289062 59.027344 C 313.222656 56.960938 310.503906 55.929688 307.789062 55.929688 C 305.078125 55.929688 302.351562 56.960938 300.292969 59.027344 L 256.417969 102.902344 C 256.371094 102.949219 256.324219 102.988281 256.277344 103.042969 L 211.65625 147.664062 C 211.601562 147.71875 211.546875 147.777344 211.496094 147.824219 L 147.835938 211.484375 C 147.789062 211.53125 147.742188 211.578125 147.695312 211.625 L 102.945312 256.375 C 102.914062 256.40625 102.878906 256.441406 102.84375 256.476562 L 92.585938 266.734375 C 92.539062 266.789062 92.484375 266.835938 92.429688 266.890625 L 59.03125 300.289062 C 57.027344 302.296875 55.921875 304.953125 55.921875 307.785156 C 55.921875 310.621094 57.027344 313.285156 59.03125 315.285156 C 63.15625 319.40625 69.902344 319.421875 74.035156 315.285156 L 315.289062 74.027344 C 317.296875 72.019531 318.394531 69.359375 318.394531 66.527344 Z M 318.394531 66.527344 " fill-opacity="1" fill-rule="nonzero"/></g><path fill="#ff3131" d="M 145.394531 187.144531 C 145.394531 189.515625 145.640625 191.835938 146.027344 194.121094 L 194.144531 146.003906 C 191.859375 145.621094 189.539062 145.378906 187.167969 145.378906 C 164.144531 145.378906 145.402344 164.117188 145.402344 187.144531 Z M 145.394531 187.144531 " fill-opacity="1" fill-rule="nonzero"/><path fill="#ff3131" d="M 374.507812 190.5 C 363.441406 178.574219 330.78125 145.757812 286.746094 121.757812 L 284.148438 124.355469 C 290.792969 145.65625 294.285156 166.769531 294.285156 187.144531 C 294.285156 209.871094 290.09375 233.253906 281.945312 256.847656 C 328.292969 234.351562 362.878906 202.132812 374.507812 190.5 Z M 374.507812 190.5 " fill-opacity="1" fill-rule="nonzero"/></svg>