<svg xmlns="http://www.w3.org/2000/svg" xmlns:xlink="http://www.w3.org/1999/xlink" width="500" zoomAndPan="magnify" viewBox="0 0 375 374.999991" height="500" preserveAspectRatio="xMidYMid meet" version="1.0"><defs><clipPath id="9f8e82fccd"><path d="M 170 0 L 373.921875 0 L 373.921875 251 L 170 251 Z M 170 0 " clip-rule="nonzero"/></clipPath></defs><path fill="#12e1b9" d="M 182.414062 216.992188 C 182.371094 216.699219 182.296875 216.414062 182.191406 216.140625 C 182.082031 215.867188 181.949219 215.605469 181.785156 215.359375 C 181.625 215.113281 181.4375 214.890625 181.222656 214.683594 C 181.011719 214.480469 180.78125 214.300781 180.527344 214.144531 C 180.277344 213.992188 180.011719 213.867188 179.734375 213.769531 C 179.457031 213.671875 179.171875 213.609375 178.878906 213.574219 C 178.585938 213.539062 178.292969 213.539062 178 213.566406 C 177.703125 213.597656 177.417969 213.660156 177.136719 213.75 L 154.207031 221.339844 L 132.292969 209.871094 C 131.894531 209.664062 131.472656 209.527344 131.03125 209.457031 C 130.585938 209.390625 130.144531 209.394531 129.703125 209.476562 C 129.261719 209.554688 128.84375 209.703125 128.453125 209.917969 C 128.058594 210.136719 127.714844 210.410156 127.410156 210.742188 L 60.082031 285.0625 L 47.648438 271.636719 C 47.46875 271.441406 47.273438 271.265625 47.054688 271.109375 C 46.839844 270.953125 46.613281 270.816406 46.371094 270.707031 C 46.128906 270.597656 45.878906 270.507812 45.621094 270.449219 C 45.363281 270.386719 45.101562 270.347656 44.835938 270.339844 C 44.570312 270.328125 44.304688 270.34375 44.042969 270.386719 C 43.78125 270.429688 43.523438 270.496094 43.273438 270.585938 C 43.023438 270.679688 42.785156 270.796875 42.558594 270.933594 C 42.332031 271.074219 42.121094 271.234375 41.925781 271.414062 L 35.558594 277.308594 C 34.804688 278.011719 34.121094 278.78125 33.519531 279.617188 C 32.914062 280.453125 32.394531 281.339844 31.964844 282.277344 C 31.53125 283.214844 31.199219 284.1875 30.957031 285.191406 C 30.71875 286.195312 30.578125 287.214844 30.539062 288.246094 C 30.5 289.277344 30.558594 290.300781 30.722656 291.320312 C 30.882812 292.339844 31.144531 293.335938 31.5 294.300781 C 31.859375 295.269531 32.308594 296.195312 32.847656 297.074219 C 33.386719 297.957031 34.003906 298.773438 34.707031 299.53125 L 44.136719 309.722656 L 16.238281 339.980469 C 13.265625 340.625 10.667969 341.980469 8.4375 344.046875 C 8.035156 344.421875 7.652344 344.8125 7.289062 345.226562 C 6.925781 345.636719 6.582031 346.0625 6.257812 346.507812 C 5.9375 346.953125 5.636719 347.414062 5.359375 347.886719 C 5.082031 348.363281 4.832031 348.847656 4.601562 349.347656 C 4.371094 349.847656 4.167969 350.355469 3.988281 350.875 C 3.808594 351.394531 3.65625 351.921875 3.53125 352.453125 C 3.402344 352.988281 3.300781 353.527344 3.226562 354.070312 C 3.152344 354.617188 3.105469 355.164062 3.082031 355.710938 C 3.0625 356.261719 3.070312 356.808594 3.101562 357.355469 C 3.132812 357.90625 3.195312 358.449219 3.28125 358.992188 C 3.367188 359.535156 3.480469 360.070312 3.621094 360.601562 C 3.757812 361.132812 3.921875 361.65625 4.113281 362.171875 C 4.304688 362.6875 4.519531 363.191406 4.761719 363.683594 C 5 364.179688 5.265625 364.660156 5.550781 365.128906 C 5.839844 365.59375 6.148438 366.046875 6.480469 366.484375 C 6.8125 366.921875 7.164062 367.34375 7.539062 367.746094 C 7.910156 368.148438 8.300781 368.535156 8.714844 368.898438 C 9.125 369.261719 9.550781 369.605469 9.996094 369.929688 C 10.441406 370.25 10.898438 370.550781 11.375 370.828125 C 11.847656 371.105469 12.335938 371.359375 12.832031 371.589844 C 13.332031 371.816406 13.839844 372.023438 14.359375 372.203125 C 14.878906 372.382812 15.40625 372.535156 15.9375 372.664062 C 16.472656 372.792969 17.011719 372.894531 17.554688 372.96875 C 18.101562 373.042969 18.644531 373.09375 19.195312 373.113281 C 19.742188 373.136719 20.292969 373.128906 20.839844 373.097656 C 21.386719 373.066406 21.933594 373.003906 22.476562 372.917969 C 23.019531 372.832031 23.554688 372.722656 24.085938 372.582031 C 24.617188 372.445312 25.140625 372.28125 25.65625 372.089844 C 26.171875 371.898438 26.675781 371.683594 27.171875 371.445312 C 27.664062 371.207031 28.144531 370.941406 28.613281 370.65625 C 29.082031 370.367188 29.535156 370.058594 29.972656 369.726562 C 30.410156 369.394531 30.832031 369.042969 31.234375 368.671875 C 33.46875 366.609375 35.023438 364.121094 35.890625 361.203125 L 68.214844 335.71875 L 77.644531 345.90625 C 78.378906 346.609375 79.167969 347.242188 80.019531 347.800781 C 80.867188 348.363281 81.757812 348.839844 82.691406 349.238281 C 83.628906 349.632812 84.59375 349.945312 85.582031 350.164062 C 86.574219 350.386719 87.578125 350.519531 88.59375 350.558594 C 89.609375 350.597656 90.621094 350.542969 91.625 350.398438 C 92.632812 350.253906 93.617188 350.019531 94.578125 349.695312 C 95.542969 349.371094 96.46875 348.960938 97.359375 348.46875 C 98.246094 347.976562 99.082031 347.40625 99.867188 346.761719 L 106.234375 340.867188 C 106.429688 340.6875 106.605469 340.488281 106.761719 340.273438 C 106.917969 340.058594 107.050781 339.832031 107.160156 339.589844 C 107.273438 339.347656 107.359375 339.097656 107.421875 338.839844 C 107.484375 338.582031 107.519531 338.316406 107.53125 338.050781 C 107.539062 337.785156 107.523438 337.523438 107.484375 337.257812 C 107.441406 336.996094 107.375 336.742188 107.28125 336.492188 C 107.191406 336.242188 107.074219 336.003906 106.933594 335.777344 C 106.796875 335.550781 106.636719 335.339844 106.453125 335.144531 L 94.015625 321.710938 L 185.453125 250.878906 C 186.03125 250.425781 186.460938 249.863281 186.734375 249.179688 C 187.003906 248.496094 187.085938 247.792969 186.976562 247.066406 Z M 29.792969 355.695312 C 29.011719 356.3125 28.523438 357.105469 28.328125 358.078125 C 27.96875 359.910156 27.101562 361.460938 25.730469 362.726562 C 25.3125 363.105469 24.859375 363.441406 24.375 363.734375 C 23.890625 364.027344 23.382812 364.269531 22.847656 364.460938 C 22.316406 364.652344 21.769531 364.789062 21.210938 364.875 C 20.652344 364.960938 20.089844 364.992188 19.523438 364.964844 C 18.960938 364.941406 18.402344 364.863281 17.851562 364.730469 C 17.300781 364.59375 16.769531 364.410156 16.257812 364.171875 C 15.742188 363.933594 15.257812 363.648438 14.800781 363.316406 C 14.34375 362.980469 13.921875 362.609375 13.535156 362.191406 C 13.152344 361.777344 12.8125 361.328125 12.515625 360.847656 C 12.21875 360.363281 11.972656 359.859375 11.773438 359.328125 C 11.574219 358.796875 11.429688 358.253906 11.339844 357.695312 C 11.25 357.136719 11.210938 356.574219 11.230469 356.007812 C 11.25 355.445312 11.324219 354.886719 11.453125 354.335938 C 11.578125 353.78125 11.757812 353.25 11.992188 352.734375 C 12.222656 352.21875 12.503906 351.730469 12.832031 351.269531 C 13.160156 350.804688 13.53125 350.382812 13.941406 349.992188 C 15.308594 348.722656 16.921875 347.976562 18.777344 347.757812 C 19.761719 347.632812 20.589844 347.207031 21.261719 346.480469 L 49.652344 315.675781 L 62.6875 329.75 Z M 97.753906 337.671875 L 94.359375 340.8125 C 93.992188 341.152344 93.59375 341.457031 93.167969 341.71875 C 92.742188 341.980469 92.292969 342.199219 91.824219 342.371094 C 91.355469 342.546875 90.871094 342.671875 90.378906 342.75 C 89.882812 342.828125 89.386719 342.859375 88.886719 342.839844 C 88.386719 342.820312 87.890625 342.753906 87.402344 342.636719 C 86.917969 342.519531 86.445312 342.355469 85.992188 342.148438 C 85.535156 341.9375 85.105469 341.6875 84.703125 341.390625 C 84.296875 341.097656 83.921875 340.765625 83.582031 340.398438 L 40.648438 294.027344 C 40.308594 293.660156 40.007812 293.261719 39.75 292.835938 C 39.488281 292.410156 39.269531 291.960938 39.097656 291.492188 C 38.921875 291.023438 38.796875 290.542969 38.71875 290.046875 C 38.640625 289.550781 38.609375 289.054688 38.628906 288.554688 C 38.648438 288.054688 38.714844 287.5625 38.832031 287.074219 C 38.949219 286.589844 39.113281 286.117188 39.320312 285.664062 C 39.53125 285.207031 39.78125 284.777344 40.074219 284.371094 C 40.367188 283.96875 40.699219 283.59375 41.066406 283.253906 L 44.457031 280.109375 Z M 88.492188 315.746094 L 79.800781 306.359375 L 144.402344 246.550781 C 144.785156 246.183594 145.089844 245.757812 145.304688 245.269531 C 145.523438 244.785156 145.640625 244.273438 145.65625 243.742188 C 145.675781 243.210938 145.589844 242.695312 145.402344 242.195312 C 145.21875 241.699219 144.945312 241.253906 144.582031 240.863281 C 144.21875 240.472656 143.796875 240.164062 143.316406 239.941406 C 142.832031 239.714844 142.324219 239.59375 141.792969 239.566406 C 141.261719 239.542969 140.746094 239.621094 140.242188 239.800781 C 139.742188 239.980469 139.292969 240.25 138.898438 240.605469 L 74.304688 300.414062 L 65.605469 291.03125 L 131.3125 218.503906 L 151.972656 229.3125 C 152.984375 229.84375 154.035156 229.929688 155.121094 229.570312 L 175.128906 222.949219 L 178.605469 245.929688 Z M 88.492188 315.746094 " fill-opacity="1" fill-rule="nonzero"/><g clip-path="url(#9f8e82fccd)"><path fill="#12e1b9" d="M 369.574219 40.453125 C 309.917969 32.734375 281.03125 2 280.75 1.695312 C 280.410156 1.324219 280.015625 1.027344 279.570312 0.804688 C 279.121094 0.582031 278.644531 0.445312 278.148438 0.398438 C 277.648438 0.347656 277.15625 0.390625 276.671875 0.527344 C 276.191406 0.660156 275.746094 0.878906 275.34375 1.175781 L 257.984375 14.125 C 219.652344 52.902344 175.511719 55.699219 175.074219 55.722656 C 174.574219 55.746094 174.097656 55.859375 173.640625 56.0625 C 173.183594 56.265625 172.777344 56.542969 172.425781 56.894531 C 172.070312 57.246094 171.789062 57.652344 171.585938 58.105469 C 171.382812 58.5625 171.265625 59.039062 171.234375 59.539062 C 168.453125 109.15625 176.3125 161.257812 176.394531 161.777344 C 176.40625 161.863281 176.421875 161.953125 176.441406 162.039062 C 189.304688 220.152344 256.429688 249.265625 259.28125 250.476562 C 260.152344 250.824219 261.039062 250.886719 261.949219 250.664062 C 288.195312 245.679688 310.859375 235.402344 329.304688 220.117188 C 332.308594 217.59375 335.179688 214.925781 337.914062 212.113281 C 340.652344 209.300781 343.242188 206.359375 345.683594 203.289062 C 348.125 200.21875 350.40625 197.03125 352.527344 193.730469 C 354.652344 190.429688 356.601562 187.03125 358.382812 183.539062 C 360.167969 180.042969 361.769531 176.464844 363.191406 172.808594 C 364.617188 169.152344 365.851562 165.433594 366.902344 161.65625 C 367.953125 157.875 368.8125 154.050781 369.480469 150.183594 C 370.148438 146.316406 370.621094 142.425781 370.898438 138.515625 C 373.773438 99.460938 373.113281 44.964844 373.105469 44.417969 C 373.097656 43.929688 373.007812 43.460938 372.832031 43.003906 C 372.65625 42.550781 372.402344 42.140625 372.078125 41.777344 C 371.753906 41.414062 371.378906 41.117188 370.945312 40.890625 C 370.515625 40.664062 370.058594 40.515625 369.574219 40.453125 Z M 277.378906 9.753906 C 285.378906 17.230469 311.65625 38.550781 358.425781 46.921875 L 345.257812 55.597656 C 337.730469 54.808594 300.753906 49.40625 267.082031 17.398438 Z M 256.8125 240.320312 C 240.59375 232.070312 194.328125 204.992188 184.382812 160.425781 C 183.960938 157.601562 177.007812 109.957031 179.148438 63.46875 C 190.226562 62.113281 224.242188 55.691406 256.8125 26.421875 L 256.8125 55.96875 C 232.769531 79.472656 205.660156 81.246094 205.394531 81.261719 C 204.894531 81.289062 204.414062 81.402344 203.957031 81.605469 C 203.503906 81.804688 203.097656 82.082031 202.742188 82.4375 C 202.386719 82.789062 202.109375 83.191406 201.90625 83.648438 C 201.699219 84.105469 201.582031 84.582031 201.554688 85.082031 C 199.75 117.269531 204.6875 150.019531 204.898438 151.398438 C 204.910156 151.488281 204.929688 151.574219 204.949219 151.660156 C 212.371094 185.195312 247.109375 203.996094 256.816406 208.652344 Z M 260.863281 201.589844 C 253.144531 197.894531 219.660156 180.269531 212.886719 150.042969 C 212.558594 147.839844 208.277344 118.242188 209.476562 88.953125 C 218.0625 87.71875 240.136719 82.765625 260.863281 63.324219 C 281.59375 82.765625 303.667969 87.722656 312.25 88.953125 C 313.449219 118.214844 309.167969 147.839844 308.84375 150.042969 C 302.070312 180.273438 268.578125 197.894531 260.863281 201.589844 Z M 264.914062 208.648438 C 274.621094 203.992188 309.359375 185.191406 316.78125 151.660156 C 316.800781 151.574219 316.820312 151.484375 316.832031 151.398438 C 317.042969 150.019531 321.980469 117.269531 320.175781 85.078125 C 320.144531 84.582031 320.03125 84.105469 319.824219 83.652344 C 319.621094 83.195312 319.34375 82.792969 318.992188 82.441406 C 318.636719 82.089844 318.234375 81.8125 317.78125 81.609375 C 317.324219 81.40625 316.847656 81.289062 316.351562 81.261719 C 316.074219 81.246094 288.964844 79.472656 264.921875 55.96875 L 264.921875 26.417969 C 297.492188 55.6875 331.507812 62.109375 342.585938 63.464844 C 344.726562 109.953125 337.773438 157.597656 337.351562 160.421875 C 327.421875 204.925781 281.144531 232.046875 264.921875 240.316406 Z M 362.824219 137.921875 C 362.566406 141.566406 362.128906 145.183594 361.507812 148.785156 C 360.886719 152.382812 360.089844 155.941406 359.113281 159.460938 C 358.136719 162.976562 356.984375 166.4375 355.660156 169.84375 C 354.339844 173.246094 352.847656 176.574219 351.191406 179.828125 C 349.535156 183.082031 347.71875 186.246094 345.742188 189.316406 C 343.769531 192.390625 341.648438 195.355469 339.375 198.214844 C 337.105469 201.074219 334.695312 203.8125 332.148438 206.429688 C 329.605469 209.046875 326.933594 211.53125 324.140625 213.882812 C 314.730469 221.632812 304.425781 227.917969 293.226562 232.738281 C 313.695312 218.199219 338.0625 194.703125 345.289062 162.035156 C 345.3125 161.949219 345.328125 161.863281 345.339844 161.777344 C 345.417969 161.261719 353.042969 110.707031 350.613281 61.769531 L 365.058594 52.238281 C 365.128906 68.636719 365.03125 107.917969 362.824219 137.921875 Z M 362.824219 137.921875 " fill-opacity="1" fill-rule="nonzero"/></g><path fill="#12e1b9" d="M 4.007812 117.542969 C 27.578125 145.550781 45.730469 160.867188 54.457031 167.507812 C 56.636719 169.164062 58.988281 170.535156 61.511719 171.609375 C 64.03125 172.6875 66.644531 173.441406 69.351562 173.871094 L 138.496094 184.742188 C 139.738281 184.824219 140.859375 184.488281 141.851562 183.742188 C 142.304688 183.332031 142.648438 182.84375 142.878906 182.277344 C 143.113281 181.710938 143.210938 181.121094 143.175781 180.511719 L 142.011719 160.476562 C 141.976562 159.902344 141.828125 159.355469 141.558594 158.84375 C 141.292969 158.328125 140.933594 157.894531 140.476562 157.535156 L 119.417969 140.890625 L 140.15625 115.121094 C 140.359375 114.867188 140.53125 114.59375 140.667969 114.300781 C 140.804688 114.003906 140.90625 113.699219 140.96875 113.378906 C 141.035156 113.0625 141.058594 112.738281 141.046875 112.414062 C 141.03125 112.089844 140.980469 111.769531 140.890625 111.457031 C 140.800781 111.144531 140.675781 110.847656 140.511719 110.566406 C 140.351562 110.285156 140.160156 110.027344 139.933594 109.789062 C 139.710938 109.554688 139.460938 109.347656 139.1875 109.171875 C 138.914062 108.996094 138.625 108.855469 138.316406 108.75 L 89.703125 92.015625 C 87.109375 91.125 84.449219 90.566406 81.714844 90.339844 C 78.984375 90.109375 76.265625 90.21875 73.558594 90.664062 C 62.75 92.441406 39.527344 97.472656 5.589844 111.175781 C 5.019531 111.417969 4.519531 111.765625 4.09375 112.21875 C 3.671875 112.675781 3.359375 113.195312 3.160156 113.785156 C 3.027344 114.445312 3.039062 115.101562 3.1875 115.753906 C 3.335938 116.410156 3.609375 117.007812 4.007812 117.542969 Z M 74.878906 98.65625 C 79.027344 97.976562 83.089844 98.316406 87.066406 99.675781 L 130.230469 114.535156 L 112.148438 137.003906 L 47.613281 121.644531 C 47.355469 121.582031 47.09375 121.546875 46.828125 121.539062 C 46.5625 121.527344 46.296875 121.542969 46.035156 121.585938 C 45.773438 121.628906 45.515625 121.695312 45.265625 121.789062 C 45.015625 121.882812 44.78125 122 44.554688 122.136719 C 44.328125 122.277344 44.117188 122.4375 43.921875 122.617188 C 43.726562 122.800781 43.550781 122.996094 43.394531 123.210938 C 43.238281 123.429688 43.105469 123.65625 42.996094 123.898438 C 42.886719 124.140625 42.796875 124.390625 42.738281 124.648438 C 42.675781 124.90625 42.640625 125.167969 42.628906 125.433594 C 42.621094 125.699219 42.636719 125.964844 42.679688 126.226562 C 42.71875 126.492188 42.789062 126.746094 42.878906 126.996094 C 42.972656 127.246094 43.089844 127.484375 43.226562 127.707031 C 43.367188 127.933594 43.527344 128.144531 43.707031 128.339844 C 43.890625 128.535156 44.085938 128.710938 44.300781 128.867188 C 44.519531 129.023438 44.746094 129.15625 44.988281 129.269531 C 45.230469 129.378906 45.480469 129.464844 45.738281 129.527344 L 111.890625 145.265625 L 134.019531 162.753906 L 134.789062 175.953125 L 70.605469 165.863281 C 66.453125 165.203125 62.707031 163.597656 59.359375 161.054688 C 51.355469 154.964844 35.128906 141.296875 13.859375 116.609375 C 44.21875 104.761719 64.953125 100.289062 74.878906 98.65625 Z M 74.878906 98.65625 " fill-opacity="1" fill-rule="nonzero"/><path fill="#12e1b9" d="M 102.578125 190.730469 L 84.773438 191.609375 C 84.507812 191.625 84.242188 191.664062 83.984375 191.726562 C 83.726562 191.792969 83.476562 191.882812 83.234375 191.996094 C 82.996094 192.109375 82.765625 192.25 82.554688 192.40625 C 82.339844 192.566406 82.144531 192.746094 81.964844 192.945312 C 81.785156 193.140625 81.628906 193.355469 81.492188 193.585938 C 81.355469 193.8125 81.242188 194.054688 81.152344 194.304688 C 81.066406 194.558594 81 194.816406 80.964844 195.078125 C 80.925781 195.34375 80.914062 195.609375 80.929688 195.875 L 82.101562 217.546875 C 82.117188 217.832031 82.164062 218.117188 82.238281 218.394531 C 82.316406 218.671875 82.421875 218.941406 82.554688 219.195312 C 82.6875 219.453125 82.84375 219.691406 83.03125 219.914062 C 83.214844 220.132812 83.417969 220.335938 83.644531 220.511719 C 83.875 220.691406 84.117188 220.84375 84.375 220.96875 C 84.636719 221.09375 84.90625 221.191406 85.183594 221.261719 C 85.464844 221.328125 85.75 221.367188 86.039062 221.375 C 86.324219 221.382812 86.613281 221.359375 86.894531 221.308594 C 94.652344 219.851562 105.988281 216.941406 114.832031 208.527344 C 115.207031 208.167969 115.503906 207.753906 115.71875 207.28125 C 115.933594 206.8125 116.058594 206.316406 116.082031 205.796875 C 116.109375 205.28125 116.039062 204.777344 115.871094 204.285156 C 115.703125 203.792969 115.453125 203.351562 115.113281 202.957031 L 105.855469 192.148438 C 105.449219 191.667969 104.957031 191.304688 104.382812 191.054688 C 103.804688 190.808594 103.203125 190.699219 102.578125 190.730469 Z M 89.933594 212.371094 L 89.238281 199.5 L 100.992188 198.921875 L 106.316406 205.132812 C 101.359375 208.683594 95.898438 211.09375 89.933594 212.371094 Z M 89.933594 212.371094 " fill-opacity="1" fill-rule="nonzero"/><path fill="#12e1b9" d="M 148.300781 188.230469 C 147.757812 188.546875 147.316406 188.964844 146.96875 189.488281 C 146.625 190.011719 146.410156 190.582031 146.328125 191.203125 L 144.832031 202.757812 C 144.765625 203.273438 144.796875 203.785156 144.925781 204.289062 C 145.054688 204.792969 145.273438 205.253906 145.578125 205.671875 C 145.886719 206.089844 146.257812 206.4375 146.699219 206.714844 C 147.140625 206.992188 147.617188 207.175781 148.128906 207.265625 C 150.351562 207.675781 152.597656 207.882812 154.859375 207.886719 C 167.867188 207.886719 174.480469 200.53125 174.796875 200.167969 C 174.972656 199.96875 175.125 199.75 175.257812 199.519531 C 175.394531 199.289062 175.5 199.046875 175.585938 198.792969 C 175.671875 198.539062 175.730469 198.28125 175.765625 198.015625 C 175.800781 197.75 175.808594 197.484375 175.789062 197.21875 C 175.769531 196.953125 175.726562 196.691406 175.65625 196.433594 C 175.585938 196.175781 175.492188 195.925781 175.371094 195.6875 C 175.25 195.449219 175.109375 195.226562 174.945312 195.015625 C 174.78125 194.804688 174.597656 194.609375 174.398438 194.4375 L 161.769531 183.523438 C 161.449219 183.246094 161.097656 183.027344 160.707031 182.859375 C 160.316406 182.695312 159.914062 182.59375 159.492188 182.554688 C 159.070312 182.515625 158.652344 182.542969 158.242188 182.632812 C 157.828125 182.726562 157.441406 182.878906 157.074219 183.09375 Z M 165.316406 197.300781 C 163.480469 198.253906 161.550781 198.941406 159.523438 199.359375 C 157.496094 199.773438 155.453125 199.90625 153.386719 199.75 L 154.105469 194.21875 L 158.664062 191.550781 Z M 165.316406 197.300781 " fill-opacity="1" fill-rule="nonzero"/><path fill="#12e1b9" d="M 125.953125 51.152344 C 125.53125 50.886719 125.074219 50.707031 124.582031 50.613281 C 124.09375 50.515625 123.601562 50.511719 123.109375 50.597656 C 122.617188 50.683594 122.15625 50.855469 121.730469 51.113281 C 121.300781 51.371094 120.933594 51.695312 120.625 52.085938 L 108.851562 67.066406 C 108.554688 67.449219 108.328125 67.871094 108.179688 68.335938 C 108.03125 68.800781 107.96875 69.273438 107.992188 69.757812 C 108.015625 70.246094 108.121094 70.710938 108.3125 71.160156 C 108.503906 71.605469 108.765625 72.003906 109.101562 72.359375 C 117.128906 80.65625 125.824219 88.179688 135.1875 94.929688 C 135.476562 95.128906 135.785156 95.289062 136.113281 95.410156 C 136.441406 95.53125 136.777344 95.609375 137.128906 95.640625 C 137.476562 95.671875 137.824219 95.660156 138.167969 95.601562 C 138.511719 95.546875 138.84375 95.445312 139.164062 95.300781 C 139.484375 95.160156 139.777344 94.976562 140.050781 94.757812 C 140.324219 94.535156 140.5625 94.285156 140.769531 94.003906 C 140.976562 93.722656 141.144531 93.417969 141.273438 93.09375 C 141.398438 92.765625 141.484375 92.429688 141.527344 92.082031 L 144.640625 65.542969 C 144.734375 64.765625 144.609375 64.023438 144.269531 63.316406 C 143.929688 62.609375 143.429688 62.050781 142.761719 61.636719 Z M 134.296875 84.203125 C 128.394531 79.542969 122.773438 74.5625 117.429688 69.269531 L 124.75 59.949219 L 136.304688 67.15625 Z M 134.296875 84.203125 " fill-opacity="1" fill-rule="nonzero"/><path fill="#12e1b9" d="M 227.429688 257.566406 C 227.179688 257.324219 226.90625 257.117188 226.605469 256.945312 C 226.300781 256.777344 225.984375 256.644531 225.648438 256.558594 C 225.3125 256.46875 224.972656 256.421875 224.625 256.421875 C 224.28125 256.421875 223.9375 256.464844 223.601562 256.550781 C 223.265625 256.636719 222.945312 256.761719 222.644531 256.929688 C 222.339844 257.097656 222.0625 257.304688 221.8125 257.542969 C 221.5625 257.78125 221.347656 258.050781 221.164062 258.34375 C 220.980469 258.640625 220.839844 258.953125 220.738281 259.285156 C 215.644531 275.90625 217.703125 299.640625 217.792969 300.644531 C 217.835938 301.128906 217.964844 301.589844 218.175781 302.03125 C 218.386719 302.46875 218.667969 302.859375 219.019531 303.195312 C 219.367188 303.535156 219.769531 303.800781 220.214844 303.996094 C 220.660156 304.1875 221.128906 304.296875 221.617188 304.324219 L 241.945312 305.394531 C 242.019531 305.394531 242.089844 305.394531 242.160156 305.394531 C 242.636719 305.394531 243.097656 305.3125 243.542969 305.152344 C 243.988281 304.988281 244.394531 304.757812 244.757812 304.453125 C 245.125 304.148438 245.425781 303.789062 245.664062 303.378906 C 245.902344 302.96875 246.0625 302.53125 246.148438 302.0625 L 249.789062 281.730469 C 249.90625 281.066406 249.863281 280.414062 249.65625 279.773438 C 249.449219 279.132812 249.105469 278.578125 248.621094 278.109375 Z M 238.800781 297.117188 L 225.628906 296.421875 C 225.074219 287.019531 225.5 277.65625 226.90625 268.339844 L 241.425781 282.429688 Z M 238.800781 297.117188 " fill-opacity="1" fill-rule="nonzero"/></svg>